<svg width="25" height="20" viewBox="0 0 25 20" fill="none" xmlns="http://www.w3.org/2000/svg">
<path fill-rule="evenodd" clip-rule="evenodd" d="M11.4338 5.89523C8.81077 4.17689 5.48936 3.53919 0 3.07305L0.243677 0C5.72384 0.465364 9.72295 1.12519 13.0275 3.28998C16.3523 5.46799 18.7698 9.02777 21.4957 14.721L18.8259 16.09C16.1539 10.5093 14.0367 7.60034 11.4338 5.89523Z" fill="#006098"/>
<path fill-rule="evenodd" clip-rule="evenodd" d="M16.2754 16.6615C15.7237 16.5396 14.9356 16.3586 13.7373 16.0384L14.4824 13.053C15.6325 13.3603 16.3787 13.5315 16.8973 13.646C16.9749 13.6632 17.051 13.6797 17.1256 13.696C17.5047 13.7785 17.8437 13.8522 18.1286 13.9474C18.5526 14.0891 18.867 14.2741 19.2234 14.5131C19.3534 14.6003 19.5371 14.7285 19.7603 14.8841C20.0215 15.0664 20.3367 15.2863 20.6832 15.5223L19.0447 18.0977C18.6058 17.7986 18.3131 17.5936 18.083 17.4324C17.8969 17.3021 17.7517 17.2004 17.6032 17.1008C17.3453 16.9278 17.2813 16.9044 17.213 16.8816C17.0891 16.8402 16.9407 16.8077 16.5626 16.7247C16.4789 16.7063 16.3839 16.6855 16.2754 16.6615Z" fill="#006098"/>
<path fill-rule="evenodd" clip-rule="evenodd" d="M21.3992 18.5565C21.3261 18.9303 21.2352 19.3946 21.111 20L18.1741 19.4004C18.2796 18.8866 18.3671 18.4408 18.4424 18.0578C18.5371 17.5759 18.6122 17.1935 18.6788 16.9002C18.8164 16.2946 18.9631 15.8456 19.2572 15.3241C19.4323 15.0136 19.6757 14.6554 19.9716 14.2201C20.0747 14.0683 20.1843 13.9071 20.2995 13.7353C20.7782 13.0218 21.4579 11.9804 22.4465 10.3369L25 11.9197C23.9835 13.6096 23.2762 14.6941 22.7708 15.4475C22.5997 15.7025 22.4608 15.907 22.3457 16.0763C22.0987 16.4397 21.962 16.6409 21.8548 16.8311C21.7557 17.0069 21.697 17.1448 21.6018 17.5639C21.5418 17.8281 21.4818 18.1347 21.3992 18.5565Z" fill="#006098"/>
</svg>
