<svg width="121" height="100" viewBox="0 0 121 100" fill="none" xmlns="http://www.w3.org/2000/svg">
<path d="M16.9048 53.8125C17.7439 53.8388 18.5839 53.8063 19.4185 53.7151C20.126 53.6095 20.8023 53.353 21.4013 52.9631C22.0003 52.5732 22.5079 52.0592 22.8895 51.456C23.5016 50.5017 24.1919 49.5734 24.8432 48.671C25.6767 47.5869 25.6637 47.1065 24.5827 45.4251C23.137 46.0743 21.6847 46.7754 20.2456 47.47C19.5097 47.8271 16.9895 47.2428 16.3382 46.5547C14.8274 44.8214 15.6479 41.3223 17.7579 40.407C19.7115 39.5695 21.5805 38.6737 23.5147 37.8687C23.9853 37.6146 24.5214 37.5067 25.0541 37.5587C25.5867 37.6108 26.0916 37.8205 26.5038 38.1608C27.3126 38.6993 28.2063 39.0987 29.1477 39.3423C31.186 40.0434 33.1853 40.7575 34.0254 43.0167C34.2303 43.3674 34.3611 43.7562 34.4096 44.1592C34.1621 46.9442 34.1296 49.7941 33.4718 52.4947C32.8206 55.2991 31.6875 58.0971 28.5681 59.2981C26.8619 61.9597 23.2998 61.4858 21.2419 63.5956C21.04 63.8034 20.4409 63.719 20.0567 63.6346C17.6407 63.1218 15.2181 62.6284 12.8347 62.0052C11.8253 61.739 10.881 61.1223 9.92372 60.7652C9.14225 60.4861 8.25659 60.4796 7.5142 60.116C6.56631 59.7687 5.71242 59.2065 5.02003 58.4736C4.14088 57.3051 3.06637 56.2729 2.25886 55.1498C0.702442 52.8972 -0.450217 50.2096 1.28203 47.2753C-0.0204117 46.0483 -0.189726 44.5293 0.15542 42.8414C0.521264 41.2529 0.778006 39.6413 0.92386 38.018C1.00252 36.1685 1.68898 34.3962 2.87752 32.9739C4.04851 31.4787 4.99812 29.8238 5.6973 28.0596C6.48527 26.177 8.11984 25.1253 9.64369 24.3593C12.2811 23.0285 15.2116 22.2689 18.2919 22.9246C19.3794 23.1583 20.8577 24.9176 20.747 25.9952C20.467 28.7218 18.1421 31.1886 15.5372 32.1624C13.5836 32.8895 11.3304 33.3829 10.4512 35.668C10.1759 36.5303 9.9861 37.4174 9.88464 38.3166C9.28552 41.8482 8.97944 45.4056 10.881 48.6321C12.0206 50.5796 12.9519 52.8452 15.5958 53.397C15.9735 53.4749 16.2861 53.8839 16.6248 54.1371L16.9048 53.8125Z" fill="#E44435"/>
<path d="M73.6314 61.8883C75.1879 63.1542 76.6922 64.3422 78.1509 65.5822C78.5216 65.902 78.7965 66.3176 78.9454 66.7831C79.8549 69.7282 79.6911 72.8989 78.483 75.7353C77.389 78.332 75.1488 79.9225 73.8594 82.266C71.7494 82.8503 70.8312 85.1614 68.5194 85.6677C66.9825 86.0053 65.6801 87.3426 64.2213 88.1411C63.813 88.3924 63.3586 88.5603 62.8845 88.6349C62.4105 88.7096 61.9263 88.6896 61.4601 88.5761C57.657 87.7711 57.4942 84.681 57.1035 81.9804C56.6411 78.8384 56.7649 75.6055 56.6086 72.418C56.4327 68.828 56.1527 65.2381 56.068 61.6481C56.068 60.1485 56.1136 58.7723 55.1889 57.4025C54.8959 56.9611 55.4494 55.6692 55.9573 55.0395C58.0999 52.3519 60.9522 50.6121 63.9673 48.9827C65.6933 47.9186 67.7552 47.5343 69.7502 47.905C71.1112 48.2101 72.4137 49.2618 73.4817 50.255C74.5497 51.2483 75.5526 52.2935 74.999 53.9619C74.9626 54.1767 74.9626 54.3962 74.999 54.611C75.2139 58.558 75.2139 58.5581 73.6314 61.8883ZM72.6286 67.5297C70.1539 69.7694 66.8653 70.1264 64.6055 72.6647C65.2568 75.1705 65.0744 78.0204 66.0643 81.104C67.9658 79.2668 69.659 77.8581 71.0331 76.2222C72.1792 74.8394 72.9542 73.1516 73.8854 71.5871C73.9593 71.4643 73.9848 71.3186 73.9571 71.1781C73.5728 70.068 73.1691 68.9904 72.6286 67.5297ZM63.0101 64.6928C66.7741 62.8231 70.4991 57.4285 69.0208 53.1763C68.3365 53.133 67.651 53.2402 67.0129 53.4904C66.3748 53.7406 65.7997 54.1276 65.3284 54.624C64.7239 55.1037 64.0498 55.4889 63.3292 55.7666C62.717 56.0782 62.0853 56.3573 61.4406 56.6624C61.9811 59.4344 62.4761 61.9922 63.0101 64.6928Z" fill="#E44435"/>
<path d="M55.6969 28.8841C56.9147 31.8703 56.5435 34.7916 56.3872 37.6934C56.2049 40.9393 55.0848 43.8866 54.0363 46.8988C53.6195 48.1322 52.6883 48.5607 51.7635 48.9632C50.2462 49.6123 48.6312 50.0733 47.0617 50.5991C46.684 50.7224 46.2998 50.8068 45.9286 50.9366C45.7333 51.0016 45.5118 51.2418 45.3751 51.1963C43.7094 50.7277 42.0864 50.1197 40.5235 49.3786C39.9569 49.0735 39.5857 48.4763 38.7912 48.5542C38.5829 48.5542 38.2833 48.2945 38.14 48.0803C36.0952 45.3148 34.2718 42.4779 34.4411 38.8035C34.4737 38.1089 33.9852 37.3818 33.7182 36.6807C33.6401 36.4795 33.4317 36.3236 33.3926 36.1289C32.9585 33.965 32.5243 31.801 32.0902 29.6371C31.96 28.9425 31.8688 28.2284 31.8037 27.5208C31.6995 26.3393 31.4781 25.2097 32.0902 24.0022C32.5135 23.1778 32.3377 22.0547 32.4484 21.0809C32.7414 18.5946 33.8811 17.3222 36.3557 16.712C36.4273 16.712 36.5315 16.712 36.5641 16.712C38.9215 13.8491 41.8585 15.855 44.2289 16.303C46.4756 16.7249 49.1391 17.7442 50.3765 20.3993C51.0686 21.6379 51.8753 22.8093 52.786 23.8984C53.2288 24.5086 53.9647 24.9695 53.3786 25.9433C53.2418 26.1705 53.626 26.8262 53.9126 27.1573C54.4531 27.787 55.1043 28.3258 55.6969 28.8841ZM47.4329 43.6529C51.8612 37.1027 49.0284 27.709 41.9171 21.5289C41.5003 22.178 40.784 22.7818 40.7644 23.4115C40.6863 25.7745 40.263 28.3647 41.0575 30.4616C41.9562 32.857 41.5133 35.285 42.2297 37.6415C42.7767 39.4592 44.6913 42.8674 46.4431 43.5165C46.7661 43.6053 47.0982 43.6576 47.4329 43.6724V43.6529Z" fill="#E44435"/>
<path d="M87.1383 34.9669C86.8406 34.7758 86.5187 34.6252 86.181 34.5189C83.8952 34.0905 82.43 33.1557 82.6254 30.4226C82.6905 29.4683 81.4857 28.4751 81.2318 27.4364C80.4698 24.2879 79.2781 21.3017 78.2557 18.244C77.6045 16.264 76.6797 14.349 75.8983 12.4404C75.3773 11.142 74.8368 9.84367 74.433 8.48039C74.3062 7.85922 74.3062 7.21895 74.433 6.59778C74.4721 6.2667 74.8954 5.9486 74.8498 5.64349C74.3288 2.39759 76.7058 1.74842 78.9329 0.897992C79.5125 0.677271 80.0661 0.372152 80.7238 0.060546C81.9481 0.969396 83.231 1.25502 84.5986 0.209844C84.7804 0.102887 84.9826 0.0349562 85.1923 0.0103638C85.402 -0.0142286 85.6146 0.00505802 85.8163 0.0670243C88.1412 0.859022 90.4595 1.6705 92.7388 2.58584C93.4356 2.86499 93.9305 3.63103 94.6273 3.93614C95.4539 4.23374 96.175 4.76609 96.7015 5.4675C97.2281 6.16891 97.5371 7.0087 97.5904 7.88316C97.6881 8.75955 98.5542 9.54504 99.0491 10.3825C99.2912 10.7211 99.4781 11.0958 99.6027 11.4926C100.165 13.6926 100.6 15.9229 100.905 18.1726C101.237 21.8145 100.488 25.2097 97.8509 28.0142C97.2593 28.7868 96.7487 29.6177 96.327 30.494C96.1894 30.818 95.9979 31.1166 95.7605 31.3769C94.0999 32.6753 92.3741 33.7854 90.1209 33.8503C89.1124 33.9879 88.1214 34.2317 87.1644 34.5774L87.1383 34.9669ZM88.9682 27.391C89.3807 27.1483 89.7728 26.8725 90.1404 26.5665C91.5831 25.1042 92.6625 23.3256 93.2923 21.3731C94.4385 18.0363 93.2142 15.141 91.9118 12.3625C91.3965 11.3066 90.8203 10.2813 90.186 9.29187C89.5739 8.30512 88.7794 7.16906 87.783 6.7406C86.9732 6.41962 86.087 6.3414 85.2332 6.51554C84.3795 6.68968 83.5953 7.10861 82.977 7.72087C81.8569 8.74657 82.176 10.3176 82.8924 11.4926C83.9778 13.1379 84.8138 14.9338 85.3735 16.8223C85.66 17.9519 87.0667 19.1918 86.7997 19.9903C86.2657 21.5938 87.8677 22.1716 87.8416 23.4894C87.8156 24.8072 88.4994 25.9563 88.9682 27.391Z" fill="#E44435"/>
<path d="M25.1494 80.4029C25.436 79.9549 25.8006 79.6369 25.8006 79.2928C25.9765 77.2933 27.5654 75.6509 27.0445 73.3982C26.8491 72.5673 27.839 71.4507 28.2362 70.4899C28.9981 68.5878 29.721 66.6727 30.4764 64.7771C30.6813 64.1795 30.9614 63.6102 31.31 63.0828C32.0198 62.122 32.6645 61.0508 34.247 61.7844C36.0053 62.6284 36.7802 63.6995 36.5718 65.3419C35.9206 70.5353 35.3345 75.6963 34.5595 80.8443C34.0776 84.0253 33.218 87.1478 32.645 90.3158C32.2347 92.5944 31.9937 94.912 31.7007 97.2166C31.4272 99.3524 31.0885 100.359 28.2427 99.8847C26.4649 99.5861 25.1494 99.1381 24.4787 97.1127C23.7363 94.8601 22.4599 92.7762 21.3137 90.6729C20.8236 89.7908 20.1973 88.9913 19.4578 88.3034C18.0446 87.005 17.3934 85.3107 16.8529 83.5319C16.6705 82.9347 16.4491 82.0193 16.0323 81.8765C14.4629 81.3377 14.4108 79.7732 13.5838 78.7605C13.0758 78.1113 12.3725 77.6698 11.9231 77.0142C10.5751 75.0147 9.31826 72.9763 8.01583 70.9314C7.61858 70.2822 7.3646 69.633 6.94131 68.9838C6.76176 68.7445 6.64418 68.4647 6.59897 68.1693C6.55377 67.8738 6.58234 67.5718 6.68215 67.29C6.78196 67.0082 6.94994 66.7553 7.17121 66.5536C7.39248 66.352 7.66021 66.2078 7.9507 66.1339C10.7379 65.1342 12.926 65.66 14.6973 67.9906C15.7338 69.5083 17.1295 70.748 18.761 71.6C19.4122 71.8986 19.7638 72.7685 20.2001 73.4112C21.6133 75.5081 23.0004 77.6309 24.407 79.7342C24.6328 79.9799 24.8814 80.2038 25.1494 80.4029Z" fill="#E44435"/>
<path d="M74.5499 15.2513C75.2662 16.2446 76.0282 17.1988 76.6924 18.2375C77.6757 19.7436 77.7213 21.4835 77.832 23.2168C77.9427 24.9501 78.0274 26.7353 78.0469 28.4946C78.0469 30.0396 78.4637 31.8703 77.793 33.0388C76.5752 35.2006 76.2626 38.1414 73.3907 39.1865C73.0456 39.3099 72.7851 39.7254 72.5181 40.037C71.8755 40.743 71.0417 41.2486 70.1173 41.4928C69.1929 41.737 68.2173 41.7094 67.3083 41.4132C66.9171 41.227 66.4961 41.1106 66.0645 41.0692C63.4596 41.2055 62.1051 39.245 60.3598 37.8233C57.8201 35.7719 57.0125 33.0194 56.6674 30.0331C56.4329 27.9817 55.5994 26.0342 55.2868 24.1061C54.9026 21.6977 53.5936 19.075 55.2868 16.4912C55.938 15.472 55.8403 13.9789 56.3743 12.8299C56.957 11.8063 57.6492 10.8485 58.4387 9.9735C58.5624 9.8177 58.8555 9.79821 58.9792 9.64241C59.4559 8.95846 60.1359 8.44085 60.9234 8.1625C61.7108 7.88416 62.566 7.85909 63.3684 8.09086C65.028 8.35884 66.6429 8.8525 68.1679 9.55801C69.783 10.3565 71.4761 10.9343 72.5767 12.5118C73.2279 13.4272 73.9963 14.2321 74.7192 15.1085L74.5499 15.2513ZM64.0978 14.2906C63.6875 15.2968 62.9451 16.316 62.9061 17.3547C62.712 19.7404 62.8324 22.1411 63.2642 24.4956C63.9806 27.5468 65.2505 30.4746 66.3706 33.4283C66.5334 33.8568 67.1846 34.0775 67.6339 34.4605C68.0787 33.932 68.5961 33.4686 69.1708 33.0842C70.1476 32.6493 70.8575 32.2403 70.8314 30.9744C70.8314 30.0461 71.4045 29.0723 71.2873 28.1765C70.9552 25.6187 70.3625 23.0934 69.9458 20.5421C69.6359 19.0638 68.9277 17.6976 67.8974 16.5904C66.867 15.4832 65.5534 14.6769 64.0978 14.2581V14.2906Z" fill="#E44435"/>
<path d="M99.9859 68.7826C99.3737 69.8992 98.8072 70.9508 98.2211 71.996C98.1264 72.1876 97.996 72.3595 97.8368 72.5024C94.8998 74.8265 91.9759 77.157 89.0128 79.4421C88.6018 79.7095 88.1158 79.8392 87.6257 79.8122C86.4964 79.8295 85.3683 79.7316 84.2589 79.52C83.9747 79.4259 83.715 79.2698 83.4987 79.0632C83.2825 78.8566 83.115 78.6046 83.0086 78.3255C82.175 75.4561 81.1331 72.5933 80.8074 69.659C80.306 65.1147 78.7105 60.7977 78.1374 56.2664C77.9124 55.0477 77.7948 53.8117 77.7858 52.5726C77.952 51.3379 77.7121 50.0828 77.102 48.9956C76.1317 47.4895 77.1736 46.1392 77.5318 45.1006C78.5868 44.6007 79.4073 44.2891 80.1367 43.8476C82.6113 42.413 85.099 41.0043 87.489 39.4462C87.8568 39.1702 88.3022 39.0161 88.7624 39.0057C89.2227 38.9952 89.6747 39.1288 90.0548 39.3878C90.4325 39.5955 90.7451 39.8942 91.1163 40.1019C92.6531 40.9394 93.0178 42.2117 91.9238 43.5296C91.3218 44.2215 90.5749 44.7733 89.7357 45.146C88.0389 45.9282 86.2996 46.6153 84.5259 47.2039C83.4384 47.5674 83.0672 48.0543 83.2235 49.2294C83.523 51.1769 83.1714 53.1634 84.5259 54.9291C85.2357 55.8445 85.7437 56.3443 86.8508 55.7406C87.3359 55.4652 87.8517 55.2474 88.3876 55.0914C89.2668 54.8642 90.2241 54.4877 91.0642 54.637C92.1517 54.8253 93.4281 55.2862 93.5844 56.643C93.7215 57.3148 93.6639 58.0116 93.4183 58.652C93.1726 59.2924 92.7491 59.8497 92.1973 60.2589C90.8102 61.2521 89.5924 62.4986 88.1076 63.336C86.46 64.2643 86.9094 65.5887 87.1568 66.8351C87.3392 67.7439 87.9904 68.4775 87.7625 69.5811C87.5866 70.464 88.583 70.8794 89.4101 70.3796C90.2123 69.9727 90.9641 69.4738 91.6503 68.893C93.0048 67.5102 94.6849 67.2116 96.4888 66.9844C98.449 66.7312 99.2565 67.0818 99.9859 68.7826Z" fill="#E44435"/>
<path d="M104.833 28.7672L108.493 31.708C108.545 32.2981 108.393 32.8884 108.063 33.3808C107.733 33.8732 107.243 34.2382 106.676 34.4151C105.492 34.8981 104.345 35.4665 103.244 36.1159C101.687 37.0183 100.554 40.0694 101.056 41.8287C101.303 42.6856 101.954 42.6532 102.612 42.4779C106.073 41.565 109.716 41.6054 113.155 42.5947C113.614 42.7101 114.083 42.7754 114.556 42.7895L117.317 44.9253C117.487 45.0408 117.635 45.1859 117.753 45.3537C118.469 46.7235 119.218 48.0868 119.863 49.4955C121.1 52.1961 121.595 54.981 119.961 57.6751C119.205 58.8539 118.272 59.9093 117.193 60.8042C114.832 62.8022 112.217 64.4828 109.417 65.8029C107.334 66.7961 105.198 66.9389 103.146 65.6211C101.779 64.7447 101.59 63.4464 102.918 62.4986C104.169 61.4736 105.53 60.5897 106.975 59.8629C109.075 58.8722 111.043 57.6273 112.836 56.1561C114.067 55.2148 114.171 52.3454 113.325 50.8068C113.325 50.7419 113.253 50.677 113.227 50.6121C112.661 49.4176 112.302 47.6843 110.87 47.6129C109.316 47.6252 107.793 48.039 106.448 48.8139C105.53 49.3008 104.846 49.7811 103.739 49.463C103.088 49.2943 102.339 49.5799 101.629 49.5669C101.161 49.5802 100.697 49.4753 100.281 49.2618C99.5059 48.8074 98.8742 48.0089 98.0602 47.7362C95.807 46.9832 95.2534 44.9123 94.231 43.192C94.0614 42.8761 94.0019 42.513 94.0617 42.1598C94.2741 40.646 94.594 39.1491 95.019 37.6804C95.5557 36.2906 96.2092 34.9486 96.9727 33.6685C97.2347 33.2551 97.6006 32.9172 98.0342 32.6883C100.203 31.4159 102.43 30.1824 104.833 28.7672Z" fill="#E44435"/>
<path d="M51.5444 92.5036C50.6717 93.2307 49.9554 94.2888 49.0502 94.4836C47.0127 95.0021 44.8531 94.7185 43.0199 93.6916C42.831 92.3413 42.6552 91.017 42.4468 89.6991C42.0793 87.969 41.8075 86.2201 41.6328 84.4602C41.5416 82.4413 41.7956 80.4029 41.8672 78.3644C42.0235 73.8202 42.1928 69.3214 42.284 64.7901C42.3166 62.9724 43.3455 61.2781 44.954 61.2521C47.0184 61.2132 48.3794 61.0703 49.0046 63.6411C49.3305 65.142 49.5783 66.6588 49.747 68.1853C49.89 68.8688 50.0815 69.5413 50.3201 70.1978C50.4941 70.5699 50.6 70.97 50.6327 71.3793C50.2354 75.164 50.6327 78.9617 50.4373 82.7464C50.3722 84.1616 50.0856 85.7391 50.5936 86.9596C51.3229 88.7578 50.9127 90.556 51.5444 92.5036Z" fill="#E44435"/>
</svg>
