<svg width="118" height="85" viewBox="0 0 118 85" fill="none" xmlns="http://www.w3.org/2000/svg">
<g clip-path="url(#clip0)">
<path d="M79.6537 18.8868C79.8404 18.4056 79.9457 17.8968 79.9655 17.3812C79.8955 16.7459 80.29 16.5362 80.7036 16.3329C81.0062 16.2132 81.3193 16.1217 81.6388 16.0598L82.3959 16.8158C82.6886 16.5299 82.9114 16.1805 83.2422 16.009C83.5827 15.9321 83.9348 15.9213 84.2793 15.9772C84.6929 16.8729 85.0937 17.667 85.4245 18.4865C85.5688 18.8603 85.6504 19.2552 85.6663 19.6554C85.7172 20.5004 85.6663 21.3389 86.3026 22.0695C86.4998 22.3109 86.4044 22.7746 86.5443 23.0923C86.9138 24.064 87.1618 25.0775 87.2824 26.1098C87.346 26.5101 87.4033 26.9167 87.4542 27.3042C87.836 27.0183 88.2432 26.6689 88.6759 26.4021C90.6513 25.2075 92.7046 24.1463 94.822 23.2257C95.4923 22.8593 96.1979 22.5614 96.9281 22.3363C97.4406 22.1461 97.9328 21.9056 98.3978 21.6184C98.4827 21.5881 98.57 21.5647 98.6587 21.5486L99.8612 22.4697L101.096 21.9361L101.897 22.5714C101.897 23.1495 101.897 23.7339 101.897 24.4772C101.357 24.744 100.832 25.0409 100.326 25.3666C99.7255 25.8234 99.1011 26.2476 98.4551 26.6371C98.2816 26.7564 98.0874 26.8426 97.8825 26.8912C97.3416 26.9611 97.2907 27.5265 96.9598 27.7616C96.5884 27.9878 96.199 28.1833 95.7955 28.346C95.6746 28.4095 95.6174 28.6128 95.4965 28.6573C94.3958 29.0385 93.8677 30.1947 92.7924 30.6076C92.6143 30.6775 92.487 30.8935 92.347 31.0459C91.7024 31.8027 90.8407 32.3438 89.8783 32.596C89.7872 32.6032 89.6996 32.6338 89.6239 32.685C88.6568 33.5871 87.4606 34.1651 86.4426 34.9974C85.6187 35.7164 84.7354 36.3646 83.8021 36.935C82.7777 37.5067 81.8552 38.2817 80.6845 38.5867C80.5763 38.6184 80.4236 38.6693 80.3854 38.7518C80.1182 39.3109 79.5901 39.5078 79.1129 39.8C78.6357 40.0923 78.3049 40.4735 77.8404 40.7657C77.3916 41.0476 76.9287 41.3062 76.4533 41.5407C74.8765 42.4178 73.3704 43.416 71.9487 44.5265C71.5733 44.806 71.1533 45.0347 70.7461 45.2825C70.1099 45.6446 69.5118 45.9813 68.9137 46.3688C68.5642 46.5889 68.2398 46.8467 67.9466 47.1375C67.2183 47.7818 66.607 48.5469 66.1397 49.3991C65.6879 50.3774 65.1216 51.3049 64.7081 52.3023C64.4632 53.0377 64.2697 53.7891 64.1291 54.5512C64.3772 54.4114 64.5554 54.3225 64.7144 54.2208C65.5098 53.7126 66.2733 53.1409 67.1068 52.7152C68.0857 52.3047 68.9939 51.743 69.7981 51.0508C69.867 50.9917 69.9554 50.96 70.0463 50.9619C70.6665 50.857 71.2236 50.521 71.6051 50.0216C72.0176 49.7187 72.4562 49.453 72.9158 49.2275C73.7302 48.7003 74.5318 48.1476 75.3399 47.6012C75.5355 47.4198 75.7833 47.3044 76.0482 47.2713C76.3131 47.2383 76.5817 47.2892 76.816 47.417C76.9611 47.497 77.0922 47.5999 77.2042 47.7219C77.4714 48.065 77.7195 48.4271 78.0694 48.9099C78.0313 49.2466 77.5859 49.8565 78.4003 50.1805C78.2951 50.5631 78.1016 50.9158 77.8353 51.2104C77.569 51.5049 77.2374 51.7331 76.8669 51.8767C75.9316 52.4039 74.9581 52.8296 74.0038 53.3505C73.4375 53.6618 72.9285 54.0684 72.3813 54.4241C71.8341 54.7799 71.4524 55.3389 70.6507 55.377C70.2562 55.377 69.9063 56.0123 69.4991 56.3109C69.1646 56.5572 68.8065 56.77 68.4302 56.9462C67.8822 57.1533 67.3806 57.4663 66.9541 57.8673C66.4578 58.3882 65.5861 58.5343 64.8989 58.8965C64.2118 59.2586 63.4292 59.7477 62.6975 60.167C62.5448 60.2559 62.4303 60.4211 62.2712 60.491C61.3932 60.8912 61.3232 61.571 61.5395 62.6001C61.6668 63.2354 61.8386 63.8707 61.9531 64.506C62.004 64.7855 61.9531 65.084 61.9531 65.3699C62.0104 66.0052 62.1058 66.6405 62.1631 67.2758C62.1949 67.5934 62.1631 67.911 62.1631 68.235C62.1211 68.5465 62.1493 68.8634 62.2458 69.1625C62.5957 69.7978 61.9976 70.395 62.2966 71.0684C62.465 71.7162 62.465 72.3962 62.2966 73.0441C62.1185 74.1876 62.3603 75.3311 62.2012 76.4809C62.0381 77.0001 61.9882 77.5481 62.0549 78.0882C62.2585 78.6726 61.9595 79.1999 62.0931 79.7399C62.1412 79.9075 62.1229 80.0872 62.0421 80.2418C61.8692 80.5876 61.8199 80.9821 61.9022 81.3598C61.9609 82.2058 61.9609 83.0549 61.9022 83.9009C61.9022 84.5743 61.266 84.7649 60.757 85.0254L59.5417 84.3901C59.6689 83.8501 59.3635 83.6595 58.8672 83.3991C58.2691 83.0878 57.4802 82.8781 57.2257 82.1285C57.0094 81.4932 56.6722 80.858 56.9203 80.0702C57.027 79.6541 57.093 79.2286 57.1175 78.7997C57.1557 78.4884 57.3402 78.1644 57.0794 77.8595C57.0041 77.6981 56.9927 77.5143 57.0475 77.3449C57.1525 76.8469 57.1395 76.3313 57.0094 75.8393C56.9267 75.547 57.073 75.204 57.0539 74.8864C57.0539 74.3908 56.9012 73.9017 56.8885 73.4125C56.8885 72.5232 56.9203 71.6338 56.9331 70.7444C56.9331 70.5157 56.9331 70.287 56.9331 69.855C56.5194 70.3198 56.1861 70.8501 55.9468 71.4241C55.6732 72.2754 55.2278 73.0695 54.9034 73.9144C54.3244 75.42 53.7708 76.9447 53.23 78.4693C53.1788 78.7144 53.0671 78.9428 52.9048 79.1337C52.7425 79.3245 52.535 79.4718 52.3011 79.562C51.7603 79.7335 51.6267 79.6764 51.2958 79.1935C51.2004 79.0538 51.0477 78.8314 50.9395 78.8442C50.3032 78.9013 50.0933 78.3931 49.8069 78.0056C49.6033 77.7197 49.2789 77.4084 49.2852 77.1162C49.2864 76.5796 49.4314 76.0532 49.7052 75.5915C50.152 74.8271 50.462 73.9909 50.6214 73.1203C50.6664 72.8875 50.728 72.6582 50.8059 72.4342C51.124 71.7036 51.5121 70.9985 51.7984 70.2552C52.4856 68.5018 53.0709 66.7231 53.7899 64.9761C54.1653 64.0358 54.6934 63.1592 55.0624 62.2253C55.4351 61.3597 55.7435 60.468 55.985 59.5572C56.0734 58.9092 56.3349 58.2969 56.7421 57.7847C56.8249 57.7021 56.9648 57.5878 56.9521 57.5052C56.8248 56.781 57.3911 56.3871 57.6774 55.8535C57.8492 55.5231 57.8811 55.1166 58.0274 54.7672C58.1737 54.4178 58.0274 53.9286 58.4473 53.6618C58.5046 53.63 58.4473 53.4521 58.4473 53.3378C58.57 52.4148 58.8117 51.5116 59.1663 50.6506C59.389 50.0788 59.478 49.4562 59.6753 48.8718C59.8675 48.5212 60.0313 48.1558 60.1652 47.7791C60.2161 47.4234 59.8916 47.0486 60.108 46.661C60.108 46.6102 60.1079 46.5213 60.1588 46.4895C60.6246 46.0089 61.1558 45.5962 61.7367 45.2634C62.2139 45.0665 62.5957 44.7743 63.0092 44.5583C63.9749 44.0188 64.9038 43.4161 65.7897 42.7541C67.2085 41.7821 68.6783 40.8864 70.1035 39.9207C71.1659 39.3134 72.1881 38.6386 73.1639 37.9006C74.6528 36.5601 76.5234 35.7915 77.9995 34.451C78.763 33.7522 79.6092 33.1423 80.4236 32.4944C80.5245 32.3875 80.6402 32.2955 80.7672 32.2212C81.8488 31.7892 81.8933 31.3826 81.5625 30.1502C81.5625 30.0676 81.4353 30.0041 81.4353 29.9279C81.4213 28.3712 81.0742 26.8355 80.4172 25.4237C80.3599 25.3157 80.1818 25.1823 80.2009 25.1506C80.6908 24.3565 79.8 23.6323 80.0991 22.8001C80.1913 22.5623 80.221 22.305 80.1854 22.0526C80.1497 21.8001 80.0499 21.561 79.8955 21.358C79.7046 21.1293 79.8064 20.6719 79.7619 20.3225C79.7174 19.9731 79.7237 19.395 79.6537 18.8868Z" fill="#E44435"/>
<path d="M36.2603 20.5702C36.0376 20.3669 35.9676 20.2335 35.8785 20.2208C34.9114 20.0874 33.9698 19.9286 32.9836 19.8523C31.9147 19.7698 30.8457 19.738 29.8023 19.7316C28.2498 19.7316 26.6909 19.7825 25.1385 19.7825C24.7339 19.8052 24.3291 19.741 23.9516 19.5941C23.574 19.4473 23.2324 19.2212 22.9498 18.9312C22.7821 18.7433 22.5789 18.5904 22.3517 18.4814C22.1246 18.3724 21.8781 18.3093 21.6264 18.2959C20.583 18.2578 20.0867 17.4002 19.7176 16.5616C19.5519 16.0189 19.485 15.4508 19.5204 14.8845C19.5204 14.0523 20.0739 13.4678 20.5702 12.8897C21.2167 12.0728 22.0473 11.4198 22.9943 10.9839C23.371 10.7607 23.7121 10.4823 24.006 10.158C24.795 9.48462 25.5648 8.78583 26.3665 8.13149C26.6476 7.94568 26.9512 7.79625 27.27 7.68679C28.1671 7.28657 28.7652 6.41624 29.6432 6.05413C30.5212 5.69202 31.1002 4.78358 32.1882 4.82805C32.312 4.82063 32.4281 4.76606 32.5127 4.67559C33.4671 3.77985 34.816 3.64009 35.8594 2.90952C36.1058 2.79882 36.3612 2.70954 36.6229 2.6427C37.0174 2.46482 37.3928 2.22977 37.7872 2.05189C38.7848 1.54338 39.8134 1.09781 40.8668 0.717809C41.8657 0.412876 42.9473 0.362052 43.9844 0.139705C44.9937 -0.102406 46.0557 0.00742796 46.9939 0.450984C47.5093 0.698742 47.9928 0.882974 48.12 1.5246C48.2397 1.8417 48.2824 2.18258 48.2448 2.51934C48.2072 2.8561 48.0903 3.17919 47.9037 3.46221C47.3884 4.1356 47.102 4.99958 46.2176 5.36804L44.8751 5.88895C44.4934 6.04142 44.118 6.22566 43.7236 6.34001C42.2971 6.82364 40.9084 7.41181 39.5688 8.09972C38.6589 8.53171 37.7046 8.73501 36.7756 9.10347C36.5847 9.1797 36.3939 9.26862 36.2093 9.36391C35.3504 9.84037 34.5169 10.3804 33.6262 10.7806C32.9899 11.0728 32.2964 11.2507 31.6474 11.5747C30.7851 12.0222 29.9577 12.534 29.1724 13.1057C28.5361 13.5504 27.8998 14.0078 27.3018 14.4779C26.9327 14.7638 26.5892 15.0814 26.2265 15.399C26.3411 15.5261 26.3983 15.6405 26.4619 15.6468C27.4545 15.723 28.447 15.8056 29.4459 15.8374C29.9195 15.8752 30.3961 15.8388 30.8584 15.7294C31.8835 15.539 32.9338 15.5261 33.9633 15.6913C34.5946 15.7888 35.2343 15.8207 35.8721 15.7866C36.3059 15.8171 36.7338 15.9046 37.1446 16.047C37.5264 16.0979 37.9209 16.0788 38.309 16.1042C38.4554 16.1042 38.6526 16.1042 38.748 16.1677C39.3206 16.6569 40.1032 16.5997 40.7331 16.9301C41.084 17.1357 41.4577 17.2999 41.8466 17.4192C43.6726 17.902 44.2389 19.3822 44.2962 20.9387C44.2774 21.5391 44.0959 22.1233 43.7709 22.6289C43.446 23.1345 42.9899 23.5428 42.451 23.8101C42.1775 23.9753 41.9293 24.1786 41.6748 24.3692C40.7577 25.1534 39.762 25.841 38.7035 26.4211C37.7085 26.7764 36.7532 27.2342 35.8531 27.7869C35.452 27.9718 35.0211 28.0837 34.5806 28.1173C33.6898 28.3142 33.0281 28.9431 32.2327 29.318C31.6474 29.5975 31.0493 29.8516 30.4767 30.1438C29.6941 30.544 28.9306 30.9697 28.1607 31.4144C27.9825 31.516 27.8235 31.7193 27.6326 31.7447C26.7164 31.8781 26.1565 32.6278 25.3803 32.9645C24.2732 33.4536 23.4206 34.2858 22.409 34.8703C21.0092 35.6961 19.7176 36.6999 18.4005 37.6528C17.0835 38.6057 15.8556 39.5205 14.6212 40.4607C14.4812 40.5687 14.3858 40.7275 14.2521 40.8419C13.864 41.1532 13.4632 41.4771 13.0687 41.763C12.5534 42.1696 12.0443 42.5889 11.5353 43.0018C10.9501 43.5612 10.3107 44.0613 9.62656 44.4947C9.18118 44.7171 8.58313 45.1745 7.99141 44.6472C7.04339 45.0093 6.4962 44.2469 5.82813 43.8467C5.42449 43.5935 5.0528 43.2928 4.72105 42.951C4.59345 42.6763 4.52734 42.3771 4.52734 42.0743C4.52734 41.7715 4.59345 41.4723 4.72105 41.1976C5.12189 40.6132 5.49092 40.0033 5.91721 39.4379C6.43077 38.6481 7.03277 37.9191 7.7115 37.2653C8.51515 36.5379 9.41674 35.9263 10.3901 35.4484C10.8819 35.1861 11.3501 34.8822 11.7898 34.5399L15.7219 31.8972C16.458 31.3023 17.2507 30.781 18.0888 30.3408C19.6285 29.7055 20.9138 28.5429 22.5426 28.1173C22.6921 28.0898 22.8334 28.029 22.9562 27.9394C23.9424 27.0564 25.2021 26.6053 26.2647 25.843C26.9907 25.3905 27.7476 24.9893 28.5298 24.6423C28.8784 24.4986 29.2093 24.3152 29.5159 24.096C30.4901 23.2858 31.6051 22.6613 32.8054 22.2537C33.9507 21.7772 34.8733 20.9133 36.2603 20.5702Z" fill="#E44435"/>
<path d="M16.7536 50.6061C16.8936 50.8475 16.9763 50.9238 16.9699 50.9936C16.9254 51.7496 17.4535 52.0863 18.0198 52.3404C18.503 52.6286 19.044 52.8064 19.604 52.8614C20.7302 52.8296 21.5637 53.4966 22.5435 53.8143C22.8958 53.9183 23.2385 54.0522 23.5679 54.2145C23.9132 54.3825 24.2342 54.5962 24.5223 54.8498C24.7932 55.1162 25.0247 55.42 25.2095 55.7519C25.4767 56.2093 25.693 56.6921 25.9348 57.1685C25.992 57.2702 26.1066 57.3972 26.0812 57.4798C25.8521 58.3057 26.0811 59.2014 25.6548 60.0209C25.3575 60.5639 25.0878 61.1215 24.8468 61.6917C24.5437 62.331 24.1103 62.9 23.5743 63.3625L22.3018 64.5949C21.2583 65.605 19.884 66.0942 18.7324 66.9391C18.5978 67.0048 18.4494 67.0374 18.2997 67.0344C18.1534 67.0344 17.9498 67.0344 17.8671 67.0788C16.8936 68.0063 15.5193 68.1016 14.4058 68.7433C14.0575 68.9006 13.6894 69.0097 13.3115 69.0673C12.3324 69.3466 11.3355 69.5589 10.3275 69.7025C9.354 69.7915 8.38052 70.1218 7.37523 69.9058C7.28498 69.8904 7.19218 69.9085 7.11434 69.9567C6.93284 70.0989 6.7088 70.1761 6.47809 70.1761C6.24738 70.1761 6.02334 70.0989 5.84183 69.9567C5.66046 69.8592 5.44806 69.8364 5.25008 69.8931C4.72744 69.9727 4.20057 70.0215 3.67218 70.0393C2.07518 70.2807 1.12716 69.404 0.255488 68.3049C0.00757113 67.925 -0.0844278 67.4644 -0.00151494 67.0185C0.0813979 66.5727 0.332915 66.1757 0.700914 65.91C1.16538 65.5923 1.8016 65.4081 2.09428 64.9824C2.27732 64.7453 2.51117 64.5521 2.77869 64.4169C3.0462 64.2817 3.34066 64.208 3.64041 64.2011C4.23915 64.0011 4.88683 64.0011 5.48557 64.2011C7.0953 63.9025 8.75587 64.3853 10.3592 63.8834C11.1418 63.7296 11.9118 63.5173 12.6625 63.2481C13.426 62.867 14.2977 62.7907 15.0167 62.3841C15.8358 61.987 16.5587 61.4169 17.1354 60.7134C17.5554 60.1786 17.847 59.5549 17.9879 58.8901C18.1279 58.2104 17.918 57.9118 17.2245 57.9563C16.5569 57.9439 15.8972 57.8104 15.2775 57.5624C14.6782 57.4284 14.0598 57.4026 13.4514 57.4862C12.5665 57.6237 11.6617 57.5496 10.811 57.2702C10.3367 57.1445 9.87456 56.9766 9.43033 56.7683C9.2173 56.6551 8.98361 56.586 8.7432 56.565C8.05252 56.4949 7.37046 56.3566 6.70713 56.1521C6.43354 55.8535 6.17272 55.5168 5.88005 55.2627C5.59571 54.9745 5.39551 54.6143 5.30103 54.2209C4.90019 53.0774 5.40284 52.2833 6.10272 51.5019C6.19774 51.394 6.27115 51.2689 6.31903 51.1334C6.41657 50.6842 6.60517 50.2597 6.87326 49.886C7.14135 49.5124 7.48322 49.1975 7.87782 48.9608C7.93061 48.9302 7.97452 48.8864 8.00512 48.8337C8.52685 47.7918 9.49394 47.2773 10.4547 46.7309C11.0337 46.4006 11.5363 45.9305 12.1089 45.5747C12.6118 45.2708 13.1348 45.0012 13.6742 44.7679C14.1475 44.547 14.6421 44.3746 15.1503 44.2534C15.742 44.1136 16.3591 44.0628 16.9636 43.9802C17.568 43.8976 18.287 43.7579 18.9487 43.7197C19.8649 43.6689 20.7811 43.7197 21.6974 43.6753C22.0764 43.6656 22.4545 43.6338 22.8298 43.58C23.3961 43.5101 23.9497 43.4021 24.4014 43.904C24.5161 44.0435 24.6684 44.1472 24.8404 44.2026C25.9857 44.5138 26.3675 45.5557 26.7047 46.4387C27.0419 47.3218 26.1448 49.0942 24.7959 48.9798C24.1429 48.9793 23.4905 49.0196 22.8426 49.1005C22.6988 49.1391 22.5474 49.1391 22.4036 49.1005C21.6973 48.7194 21.1311 49.1005 20.4948 49.3356C19.7059 49.6532 18.866 49.8438 18.0516 50.1106C17.6317 50.2377 17.2499 50.4092 16.7536 50.6061Z" fill="#E44435"/>
<path d="M34.1986 42.9828C33.774 42.9703 33.3489 42.9851 32.9261 43.0273C31.8636 43.1988 30.7883 42.716 29.7449 43.1289C29.1977 43.3386 28.7205 42.7922 28.1097 43.0527C27.5947 43.1565 27.0668 43.1801 26.5445 43.1226C26.0332 43.1076 25.5439 42.9117 25.1638 42.5699C24.7312 42.2649 24.3049 41.9346 23.8913 41.6106C23.7705 41.5236 23.6794 41.4017 23.6304 41.2612C23.4501 40.7822 23.3616 40.2736 23.3696 39.7619C23.4205 39.4253 23.8468 39.1267 24.1586 38.8535C24.6478 38.4668 25.2115 38.1849 25.8147 38.0253C26.4179 37.8657 27.0475 37.8319 27.6644 37.926C28.3098 38.0035 28.9644 37.925 29.5731 37.6973C29.9931 37.5194 30.3748 37.8371 30.7438 37.5703C31.1128 37.3034 31.5455 37.5703 31.9527 37.5703C32.5749 37.6239 33.2015 37.581 33.8105 37.4432C34.2159 37.3695 34.6323 37.3825 35.0322 37.4813C35.4366 37.5888 35.8621 37.5888 36.2665 37.4813C36.6673 37.3352 37.1064 37.6655 37.6154 37.5575C38.2517 37.4241 38.9388 37.5575 39.6132 37.3606C40.08 37.3325 40.5484 37.3453 41.013 37.3987C41.7829 37.3225 42.5464 37.0874 43.3162 37.0811C44.5195 37.0071 45.7274 37.0668 46.9175 37.259C48.05 37.5067 49.2016 37.6528 50.3468 37.8498C51.2821 38.0086 52.2556 39.2601 51.982 40.1876C51.8352 41.0947 51.4133 41.9351 50.7731 42.5953C50.5865 42.7552 50.3683 42.8741 50.1326 42.9442C49.8969 43.0142 49.649 43.0339 49.4052 43.0019C48.8007 42.9637 48.2536 42.716 47.6046 43.0654C47.2483 43.256 46.6821 43.0654 46.2049 43.0654C45.506 43.0643 44.8082 43.0091 44.1179 42.9002C43.9023 42.9003 43.6879 42.9324 43.4817 42.9955C42.8409 43.1625 42.1658 43.1449 41.5347 42.9447C41.0257 42.7541 40.3322 43.0336 39.7977 43.0971C39.4987 43.8277 39.1997 44.5202 38.9324 45.219C38.6816 45.7828 38.4876 46.3701 38.3534 46.9723C38.1641 47.7342 37.8503 48.4597 37.4245 49.1196C36.9067 50.192 36.45 51.2928 36.0565 52.4167C35.8463 53.0888 35.5467 53.7298 35.1658 54.3225C35.0033 54.6691 34.8755 55.0308 34.784 55.4025C34.2496 56.5523 33.6261 57.6704 33.1616 58.8456C32.6272 60.1924 31.7046 61.3868 31.6219 62.9051C31.151 63.3942 30.9856 64.1756 30.1457 64.3027C29.6685 64.3662 29.1977 64.4552 28.7015 64.5377C28.5869 64.398 28.4978 64.2201 28.3579 64.1439C26.9072 63.3434 26.5445 62.003 27.0854 60.4275C27.3589 59.608 27.9888 59.0299 28.1797 58.1596C28.4536 57.3459 28.823 56.5676 29.2804 55.8408C29.5095 55.3707 29.7386 54.8942 29.974 54.4241C30.0249 54.3225 30.1458 54.2082 30.133 54.1129C30.0185 53.2743 30.5975 52.7216 30.9729 52.0863C31.1192 51.8449 31.4373 51.6607 31.2083 51.3049C31.1701 51.2478 31.1701 51.0889 31.2083 51.0699C31.9145 50.7014 31.7364 49.9581 31.9464 49.38C31.9845 49.2657 31.9464 49.0688 32.0291 49.0433C32.6653 48.7765 32.3281 48.2048 32.3281 47.8363C32.2882 47.5255 32.3703 47.2114 32.5571 46.9596C32.6536 46.7812 32.7101 46.5839 32.7226 46.3815C32.7226 46.299 32.678 46.1401 32.7226 46.1274C33.4097 45.7653 33.1807 44.8569 33.7406 44.4249C33.9231 44.236 34.0594 44.0076 34.1388 43.7574C34.2183 43.5073 34.2388 43.2422 34.1986 42.9828Z" fill="#E44435"/>
<path d="M54.5966 53.8524C54.5394 54.1128 54.3803 54.3924 54.4312 54.6274C54.5648 55.339 54.1767 55.9361 54.0367 56.5777C53.8666 56.9813 53.6755 57.3757 53.4641 57.7594C53.0823 58.9092 52.7642 60.0781 52.3761 61.2279C52.2068 61.5657 52.0199 61.8944 51.8162 62.2126C51.6062 62.651 51.4663 63.1211 51.2563 63.5531C50.7918 64.506 50.3019 65.4589 49.812 66.3927C49.6911 66.6278 49.5257 66.8374 49.4048 67.0661C49.2839 67.2948 49.2266 67.5108 49.1057 67.7014C48.5905 68.5482 48.1293 69.4266 47.725 70.3315C47.2393 71.2483 46.6953 72.1332 46.0963 72.9806C45.9075 73.273 45.6947 73.5492 45.46 73.8064C45.3332 73.9602 45.1719 74.0821 44.9892 74.1622C44.5438 74.3464 43.9648 74.2384 43.7167 74.8356C43.6785 74.9309 43.3858 74.9626 43.214 74.9436C42.5778 74.8928 41.9415 74.8038 41.3498 74.7212C41.2607 74.7212 41.178 74.645 41.0953 74.6387C40.7517 74.6387 40.3382 74.7403 40.0773 74.5878C39.4476 74.2765 38.9053 73.8136 38.4993 73.241C38.3445 73.0229 38.1503 72.8355 37.9268 72.6884C37.3859 72.3199 37.335 71.7227 37.1823 71.17C37.1314 70.9985 37.1823 70.7825 37.0869 70.6491C36.7124 70.0301 36.5329 69.313 36.5715 68.5908C36.4656 67.9599 36.4656 67.3159 36.5715 66.685C36.6818 66.424 36.7337 66.1422 36.7238 65.8592C36.714 65.5761 36.6424 65.2986 36.5142 65.046C36.4683 64.8754 36.4888 64.6938 36.5715 64.5377C36.7918 64.0819 36.8799 63.5735 36.826 63.0703C36.7178 62.3524 37.265 61.7616 37.2332 61.0501C37.2332 60.9802 37.3223 60.8976 37.3732 60.8277C37.7645 60.2512 38.039 59.6038 38.1812 58.9219C38.3602 58.4969 38.5729 58.0869 38.8175 57.6958C39.4749 56.379 40.2166 55.1058 41.038 53.8841C41.197 53.6364 41.2544 53.3251 41.4262 53.0964C42.0882 52.0186 42.9679 51.0904 44.0093 50.3711C44.2702 50.2186 44.3529 49.7803 44.5883 49.5389C45.0281 49.0775 45.5048 48.6526 46.0135 48.2683C46.4679 48.0125 46.8944 47.7102 47.2861 47.3662C47.6376 47.0072 48.0759 46.7446 48.5586 46.6039C49.7293 46.2608 50.849 45.5557 52.1725 45.9686C52.5988 46.0919 52.9919 46.3095 53.3223 46.6054C53.6528 46.9013 53.9122 47.2677 54.0812 47.6775C54.3092 48.0617 54.4968 48.4683 54.6411 48.8909C54.8012 49.6723 54.8695 50.4696 54.8448 51.2668C54.8448 51.8259 54.883 52.3786 54.8448 52.9376C54.8064 53.2291 54.7403 53.5162 54.6475 53.7952L54.5966 53.8524ZM42.5078 70.0901C43.2649 69.0736 44.213 68.1398 44.4548 66.7676C44.5293 66.5737 44.6417 66.3966 44.7855 66.2466C44.9828 65.9544 45.1864 65.6622 45.4218 65.3827C45.6572 65.1031 45.9181 64.7982 46.1535 64.4933C46.5543 63.9596 47.1524 63.5531 47.197 62.778C47.197 62.6065 47.4133 62.4413 47.5406 62.2762C47.6899 62.1317 47.8262 61.9744 47.9478 61.8061C48.3995 60.9421 48.8576 60.0845 49.2648 59.2014C49.672 58.3184 50.0092 57.4226 50.3591 56.5206C50.5294 56.0865 50.5991 55.6195 50.5628 55.1547C50.5292 54.7054 50.6479 54.2579 50.8999 53.8841C51.1453 53.4832 51.2337 53.0058 51.1481 52.5437C51.1481 52.099 51.619 51.7242 51.5044 51.2097C51.5044 51.1525 51.4663 51.0953 51.4536 51.0381C51.3136 50.6125 51.0654 50.5108 50.6328 50.5934C49.4175 50.8348 48.724 51.9339 47.6106 52.3468C47.496 52.3913 47.426 52.5755 47.3433 52.6962C46.9662 53.3934 46.5231 54.0529 46.0199 54.6656C45.4409 55.2564 45.2055 56.0251 44.7092 56.6603C44.1266 57.5311 43.6483 58.4671 43.284 59.4492C42.8589 60.1794 42.4786 60.9346 42.1451 61.7108C41.967 62.2571 41.5916 62.7717 41.4262 63.3498C41.1526 64.309 40.879 65.2556 40.6817 66.2466C40.6371 66.7093 40.6371 67.1752 40.6817 67.6379C40.6881 67.7564 40.6881 67.8751 40.6817 67.9936C40.6191 68.213 40.6088 68.444 40.6517 68.668C40.6945 68.8921 40.7892 69.1031 40.9284 69.284C41.0675 69.4649 41.2472 69.6108 41.453 69.7099C41.6587 69.8091 41.8849 69.8588 42.1133 69.855C42.2536 69.9175 42.386 69.9964 42.5078 70.0901Z" fill="#E44435"/>
<path d="M94.4711 78.3169C94.0384 78.5646 93.5167 78.6726 93.3958 79.2253C92.1742 80.2036 90.9653 81.1883 89.7182 82.1412C89.3268 82.4242 88.8987 82.6529 88.4457 82.821C87.6186 83.164 86.8869 83.6723 86.0407 83.9962C85.1817 84.3197 84.2667 84.4688 83.3493 84.4346C82.713 84.4346 82.115 84.4854 81.4978 84.4346C81.1841 84.4407 80.8726 84.3814 80.5831 84.2606C80.2936 84.1399 80.0326 83.9602 79.8165 83.7331C79.6004 83.506 79.434 83.2364 79.328 82.9415C79.222 82.6467 79.1788 82.333 79.201 82.0205C79.2252 81.9052 79.2659 81.794 79.3218 81.6902C79.3727 81.5568 79.4873 81.3852 79.4491 81.2836C79.1183 80.4133 79.5763 79.6509 79.7863 78.8696C79.9401 78.1097 80.2173 77.3801 80.6071 76.7096C80.9319 76.1176 81.1474 75.472 81.2433 74.8038C81.2884 74.5237 81.3901 74.2556 81.5423 74.016C81.8022 73.6 81.9814 73.1388 82.0705 72.6566C82.2105 71.8244 82.2486 70.9731 82.3249 70.1155C82.3257 70.031 82.3408 69.9472 82.3695 69.8677C83.0757 68.775 83.1966 67.5235 83.4511 66.2911C83.5911 65.5986 83.2284 64.9189 83.5402 64.2582C83.5402 64.1947 83.4639 64.0549 83.502 64.0104C83.8013 63.5194 83.9515 62.9523 83.9347 62.3778C84.0174 61.7425 84.0937 61.1454 84.1828 60.5355C84.2063 60.4237 84.2427 60.315 84.291 60.2115C84.5213 60.1796 84.7559 60.2066 84.9728 60.29C85.1898 60.3733 85.3821 60.5102 85.5317 60.6879C85.6103 60.7616 85.7037 60.8179 85.8057 60.8529C85.9077 60.8879 86.016 60.901 86.1234 60.8912C87.0415 60.9226 87.9287 61.2305 88.6684 61.7743C88.788 61.8563 88.9254 61.9085 89.0693 61.9267C89.9524 62.0736 90.7779 62.4604 91.4552 63.0448C92.0915 63.5276 92.8486 63.9342 93.4912 64.4488C94.1339 64.9633 94.8147 65.2492 95.1074 66.037C95.1837 66.2466 95.4064 66.3991 95.5718 66.5706C95.9577 66.9257 96.1866 67.4193 96.2081 67.9428C96.2081 68.0063 96.2081 68.0762 96.2081 68.1207C96.8443 69.0927 96.6216 70.2108 96.5389 71.2272C96.4562 72.2436 96.5389 73.1965 95.979 74.0669C95.9242 74.1746 95.9063 74.2974 95.9281 74.4163C96.1444 75.4009 95.3872 76.1061 95.2091 76.9574C95.1641 77.0684 95.0773 77.1573 94.9673 77.2051C94.771 77.3072 94.6151 77.4727 94.525 77.6746C94.4349 77.8765 94.4159 78.1028 94.4711 78.3169ZM84.9972 79.7145C85.818 80.0321 86.2698 79.6001 86.766 79.346C87.6123 78.8823 88.3757 78.247 89.241 77.815C90.007 77.366 90.6074 76.6819 90.9526 75.8647C91.5888 74.5942 91.5888 73.1584 91.5125 71.7481C91.5125 71.1573 91.2071 70.5411 91.5697 69.9439C91.6461 69.8232 91.5697 69.6009 91.5697 69.423C91.5697 69.0164 91.5697 68.5971 91.5697 68.1906C91.5697 67.8856 91.5316 67.4727 91.3407 67.2948C90.4945 66.5007 89.7692 65.5224 88.5157 65.2492C88.2231 65.1857 87.9812 64.8935 87.644 64.6521C87.3888 65.7644 87.3371 66.9137 87.4913 68.0445C87.4913 68.1207 87.4913 68.2541 87.4913 68.2859C87.135 68.5527 87.2941 68.9211 87.2432 69.2769C87.1478 69.9122 87.2432 70.6364 86.7978 71.1827C86.7151 71.2844 86.7278 71.4622 86.6896 71.602C86.4606 72.6057 85.9643 73.5587 86.0534 74.6323C85.6207 75.0833 85.8244 75.6423 85.7798 76.1633C85.7513 76.4535 85.7067 76.742 85.6462 77.0273C85.379 77.923 85.1881 78.8251 84.9972 79.7145Z" fill="#E44435"/>
<path d="M85.6973 46.2545C86.9252 45.6955 87.5678 44.5647 88.4459 43.6689C89.1195 43.0975 89.8611 42.611 90.6537 42.2205C91.0648 41.9835 91.4897 41.7714 91.9262 41.5852C92.4098 41.3692 92.8997 41.1723 93.3959 40.988C93.8922 40.8038 94.5221 40.6196 95.0884 40.4354C95.4569 40.2854 95.8381 40.1685 96.2273 40.086C97.2072 39.9589 98.0597 39.4507 99.0268 39.2538C99.9124 39.1587 100.767 38.8749 101.534 38.4215C101.828 38.1767 102.207 38.0568 102.589 38.0877C102.971 38.1185 103.325 38.2977 103.576 38.5867C103.696 38.7125 103.774 38.8723 103.799 39.0441C103.945 39.8318 104.079 40.626 104.212 41.42C104.227 41.5062 104.227 41.5943 104.212 41.6805C103.913 42.7859 104.212 43.923 104.021 45.0348C104.026 45.3535 104.064 45.6708 104.136 45.9813C104.282 47.094 104.187 48.225 103.856 49.2975C103.837 49.3553 103.837 49.4176 103.856 49.4754C104.219 50.7459 103.602 51.8386 103.22 52.9694C103.194 53.0498 103.177 53.1329 103.169 53.2171C103.16 53.3143 103.16 53.4122 103.169 53.5094C104.282 53.827 104.091 54.7799 104.225 55.6312C103.769 55.871 103.256 55.9824 102.742 55.9533C102.227 55.9242 101.731 55.7557 101.305 55.466C100.713 55.1408 100.088 54.8809 99.4404 54.691C97.8179 54.1002 96.2082 53.4204 94.554 52.9757C93.4344 52.6501 92.3462 52.2249 91.3026 51.7052C90.5582 51.3494 89.8138 50.9937 89.0757 50.6252C88.9393 50.5591 88.831 50.4464 88.7704 50.3076C88.5286 49.5579 87.8605 49.3229 87.2624 49.0053C86.9982 48.8677 86.7542 48.6945 86.5371 48.4907C86.4134 48.3905 86.3142 48.2634 86.247 48.1192C86.1798 47.9751 86.1462 47.8175 86.149 47.6585C86.0694 47.1706 85.9171 46.6974 85.6973 46.2545Z" fill="#E44435"/>
<path d="M50.1826 20.3479C50.0681 20.1954 50.0171 20.043 49.9217 20.0112C49.2854 19.7889 48.5983 19.6046 47.943 19.3759C47.3666 19.1737 46.8016 18.9404 46.2505 18.6771C46.1042 18.6073 46.0151 18.3722 45.926 18.2007C45.8369 18.0292 45.6779 17.6734 45.5634 17.4066C45.5252 17.3303 45.4488 17.2033 45.4743 17.1779C45.9642 16.6824 45.3534 16.3901 45.2452 15.9581C45.6206 15.4626 45.9959 14.9608 46.7658 15.2721C48.0892 15.0052 49.2409 15.6723 50.4689 15.9073C50.5836 15.9346 50.7009 15.9495 50.8188 15.9518C51.2602 15.8945 51.7072 15.8945 52.1486 15.9518C53.9365 16.46 54.6173 15.1958 55.4062 14.046C55.7959 13.4818 56.2209 12.9429 56.6787 12.4324C57.0223 12.0321 57.2068 11.3905 57.9512 11.5049C58.0276 11.5049 58.1357 11.3714 58.2248 11.2889L59.631 10.0183C60.1145 10.139 60.4899 10.3614 60.9035 10.1136C61.018 10.0501 61.317 10.4058 61.5397 10.4567C61.6681 10.4607 61.794 10.4925 61.9088 10.55C62.0236 10.6075 62.1244 10.6893 62.2043 10.7897C62.2843 10.89 62.3413 11.0066 62.3716 11.1312C62.4018 11.2558 62.4046 11.3855 62.3796 11.5112C62.3796 11.5874 62.3796 11.7145 62.4686 11.7399C63.2067 12.0957 62.8441 12.5658 62.5896 13.0105C61.9645 14.1733 61.0781 15.1757 60 15.9391C59.6825 16.1847 59.3807 16.4499 59.0965 16.7332L60.0572 16.8603L61.2789 17.0445C61.4252 17.0445 61.5779 17.1652 61.7115 17.1398C62.1388 17.1358 62.5652 17.1762 62.9841 17.2605C63.9577 17.3692 64.9109 17.6151 65.8154 17.991C66.2607 18.1308 66.3689 18.5056 66.5788 18.7915C66.7678 19.1238 66.9153 19.4779 67.0179 19.846C66.5916 20.3288 66.2162 20.8244 65.7454 21.2437C65.4928 21.3947 65.2146 21.4981 64.9246 21.5486C64.6574 22.349 64.492 22.4443 63.6076 22.5206C62.5349 22.5894 61.4584 22.4711 60.4263 22.1712C59.8791 22.025 59.3128 21.9615 58.7593 21.8599C58.6113 21.8484 58.4657 21.8163 58.3266 21.7646C57.6058 21.4485 56.8296 21.2779 56.0425 21.2627C55.7498 21.6375 55.4635 21.9933 55.1899 22.3554C54.9424 22.6272 54.7287 22.928 54.5537 23.2511C54.191 24.0897 53.3829 24.6297 53.0394 25.4301C52.6958 26.2306 51.9768 26.7642 51.5441 27.4948C51.4351 27.6292 51.3011 27.7413 51.1496 27.8251C50.7615 28.0919 50.6152 28.5493 50.3225 28.8733C49.4273 29.9534 48.2616 30.7775 46.944 31.262C46.7545 31.3174 46.553 31.3162 46.3642 31.2586C46.1754 31.2011 46.0076 31.0896 45.8815 30.938C45.5252 30.5632 45.2452 30.1058 44.6917 29.947C44.6026 29.9152 44.5199 29.7183 44.5008 29.5912C44.405 29.0768 44.4293 28.5474 44.5716 28.0439C44.714 27.5404 44.9706 27.0764 45.3216 26.688C45.6588 26.2878 45.9578 25.8367 46.2505 25.4174C46.3262 25.2896 46.4281 25.1792 46.5495 25.0934C47.3021 24.6362 47.8645 23.9235 48.1338 23.086C48.519 22.3659 48.9797 21.6887 49.5081 21.0658C49.7188 20.8137 49.9441 20.574 50.1826 20.3479Z" fill="#E44435"/>
<path d="M74.544 61.8315C74.192 62.1832 73.892 62.5832 73.6532 63.0194C73.3584 63.914 73.112 64.8238 72.9152 65.7448C73.5514 65.8591 74.1877 65.9354 74.8239 66.0688C75.772 66.2784 76.7327 66.5262 77.6553 66.7422C77.8632 66.7841 78.0524 66.8911 78.1954 67.0476C78.3383 67.204 78.4277 67.4019 78.4506 67.6125C78.7155 68.5694 78.592 69.5919 78.107 70.4585C77.6099 70.6802 77.0492 70.714 76.5291 70.5538C75.8928 70.3887 75.1803 70.3188 74.5186 70.1409C73.5833 69.8931 73.0169 70.1409 72.7179 71.367C72.3807 72.7519 72.2789 74.1876 71.7063 75.5153C71.4772 76.0553 71.8654 76.5636 72.6034 76.7859C73.1757 76.922 73.7405 77.0874 74.2958 77.2814C74.7364 77.5202 75.1412 77.8196 75.4983 78.1708C75.7328 78.36 75.9191 78.602 76.0419 78.877C76.1646 79.1519 76.2203 79.452 76.2046 79.7526C75.9468 80.1036 75.6081 80.3874 75.2171 80.5798C74.8261 80.7722 74.3945 80.8677 73.9586 80.858C73.0315 80.9437 72.1097 81.0794 71.1972 81.2646C70.5667 81.3782 69.9288 81.4461 69.2885 81.4679C68.8793 81.4257 68.4809 81.3117 68.1114 81.1312C67.2666 80.8085 66.4914 80.3277 65.8273 79.7145C65.6502 79.5759 65.519 79.3871 65.4509 79.173C65.3828 78.9588 65.381 78.7291 65.4455 78.5138C65.6277 78.0709 65.6654 77.5819 65.5537 77.1162C65.5028 76.9892 65.6364 76.7923 65.6873 76.6271L66.3236 74.6704C66.3618 74.5561 66.3553 74.4099 66.4253 74.3337C66.9852 73.6984 67.0234 72.9171 67.2334 72.1674C67.367 71.6592 67.5515 71.1828 67.6661 70.6618C68.0224 69.0228 68.4932 67.4092 68.9386 65.7829C68.7286 64.8935 69.2566 64.074 69.193 63.1656C69.1104 62.4985 69.2659 61.8237 69.6321 61.2597C70.1474 60.6245 70.2047 59.716 70.8028 59.1125C70.8028 58.1088 71.439 57.8864 72.2471 57.8801C72.3234 57.8801 72.3998 57.7911 72.4761 57.753C72.9915 57.537 73.4687 57.1177 74.0795 57.4798C75.2375 57.1813 76.3064 57.6768 77.4198 57.842C77.7027 57.8801 77.9895 57.8801 78.2724 57.842C78.5889 57.7459 78.9283 57.7561 79.2385 57.8708C79.5487 57.9855 79.8128 58.1985 79.9903 58.4772C80.1523 58.771 80.3681 59.0318 80.6266 59.2459C80.9226 59.4249 81.1412 59.7075 81.24 60.0387C81.3388 60.3698 81.3107 60.7258 81.161 61.0374C81.0089 61.3676 80.762 61.6453 80.4517 61.8353C80.1413 62.0253 79.7815 62.119 79.4177 62.1046C78.9828 62.106 78.5518 62.1857 78.1452 62.3397C77.778 62.4504 77.3862 62.4504 77.019 62.3397C76.3827 62.2063 75.7465 61.9966 75.1102 61.8315C74.9225 61.8041 74.7317 61.8041 74.544 61.8315Z" fill="#E44435"/>
<path d="M109.843 34.0889C109.977 35.2769 110.11 36.2997 110.212 37.3161C110.212 37.5702 110.129 37.8371 110.161 38.0848C110.257 38.9284 110.277 39.7789 110.218 40.6259C110.223 40.9867 110.186 41.3468 110.11 41.6996C110.051 41.8973 109.95 42.0803 109.816 42.2368C109.681 42.3933 109.515 42.5197 109.328 42.608C109.102 42.7038 108.889 42.8254 108.691 42.9701C108.54 43.1274 108.341 43.2311 108.125 43.2655C107.909 43.2999 107.688 43.2631 107.495 43.1607C107.495 43.059 107.349 42.9002 107.387 42.7922C107.629 42.0934 107.234 41.6614 106.795 41.2294C106.356 40.7975 106.121 40.4481 106.503 39.8954C106.541 39.7821 106.541 39.6592 106.503 39.546C106.286 38.0404 106.07 36.5348 105.866 35.0292C105.828 34.9197 105.777 34.8152 105.714 34.7179C104.874 34.8131 104.015 34.9148 103.169 35.0037C102.322 35.0927 101.394 35.1371 100.516 35.2578C99.8065 35.3467 99.1047 35.4868 98.4159 35.6771C97.5888 35.9058 96.9398 35.6771 96.7934 34.8322C96.7412 34.5805 96.6732 34.3322 96.5898 34.0889C96.7807 33.9301 96.9589 33.7713 97.1434 33.6252C97.2749 33.5273 97.3757 33.3941 97.4343 33.2411C97.4929 33.0882 97.5068 32.9217 97.4742 32.7612C97.4284 32.4177 97.5144 32.0695 97.715 31.7867C97.9157 31.5039 98.216 31.3073 98.5559 31.2365C99.9683 31.065 101.336 30.6711 102.8 30.7474C103.627 30.7855 104.492 30.6076 105.345 30.7093C105.618 30.741 105.835 30.6013 105.841 30.2265C105.841 29.6357 105.962 29.0512 106.006 28.4604C106.028 28.3157 105.994 28.1681 105.911 28.0474C105.599 27.7806 105.682 27.5138 105.777 27.1771C105.904 26.3922 105.841 25.5884 105.593 24.8329C105.55 24.71 105.54 24.5781 105.564 24.4502C105.587 24.3222 105.643 24.2024 105.726 24.1024C105.902 23.8083 106.043 23.4949 106.146 23.1685C106.472 23.0412 106.808 22.9434 107.152 22.8763C107.96 22.7493 108.297 22.9906 108.475 23.7974C108.583 24.2866 108.628 24.7885 108.73 25.284C108.85 25.8812 109.016 26.4783 109.15 27.0755C109.283 27.6726 109.398 28.2063 109.487 28.778C109.595 29.4451 109.671 30.1121 109.76 30.7918C110.008 30.7918 110.187 30.8363 110.358 30.83C111.574 30.7791 112.783 30.7156 113.998 30.6775C114.475 30.6775 114.952 30.6775 115.429 30.7093C115.544 30.7093 115.716 30.7855 115.773 30.7093C116.212 30.3154 116.626 30.6521 117.045 30.7093C117.637 30.8427 117.796 31.0841 117.841 31.6812C117.841 32.1132 117.943 32.5452 118.006 33.0915C117.37 33.7268 116.511 33.5299 115.678 33.5807C114.691 33.6379 113.692 33.4473 112.713 33.8348C112.305 33.9033 111.889 33.914 111.478 33.8666C110.976 33.9492 110.479 34.0127 109.843 34.0889Z" fill="#E44435"/>
<path d="M70.3879 33.9873C70.1725 34.3553 70.1044 34.791 70.1971 35.207C70.2989 36.0456 70.5152 36.9096 70.1589 37.7481C70.1155 37.9808 70.1286 38.2204 70.1971 38.4469C70.2166 38.5366 70.2163 38.6294 70.1964 38.719C70.1765 38.8086 70.1374 38.8928 70.0818 38.9659C70.0261 39.0389 69.9553 39.0991 69.8742 39.1422C69.793 39.1853 69.7035 39.2104 69.6117 39.2156C69.3 39.2855 69.09 39.1013 68.9055 38.809C68.5701 38.3469 68.2068 37.9056 67.8175 37.4877L68.2184 36.9921C68.1611 36.8969 68.1356 36.8079 68.0974 36.8015C67.2258 36.6491 66.9713 36.071 67.0158 35.2642C67.0258 35.1765 67.0173 35.0878 66.9911 35.0036C66.9648 34.9193 66.9212 34.8415 66.8631 34.775C66.736 34.6612 66.6375 34.519 66.5756 34.3601C66.5137 34.2012 66.4901 34.0299 66.5068 33.8602C66.514 33.5897 66.455 33.3215 66.335 33.0788C66.1759 32.8247 65.826 32.4436 65.6542 32.4944C65.088 32.6405 64.7125 32.272 64.2608 32.1513C64.0404 32.0789 63.8066 32.0567 63.5765 32.0864C63.3463 32.1161 63.1258 32.1969 62.931 32.3229C62.0747 32.9089 61.3275 33.6399 60.7233 34.4828C60.087 35.2451 59.2917 35.2388 58.7318 34.5527C58.6236 34.4193 58.859 34.0635 58.4964 34.127C58.3373 34.127 58.1973 34.343 58.0573 34.4637C57.9786 34.5442 57.8829 34.606 57.7772 34.6449C57.6714 34.6837 57.5584 34.6984 57.4462 34.6881C57.3341 34.6777 57.2257 34.6425 57.1289 34.585C57.0321 34.5275 56.9493 34.4492 56.8866 34.3558C56.2504 33.6379 56.4285 32.7993 57.2938 32.1958C57.6968 31.9045 58.0795 31.5861 58.4391 31.2429C59.3426 30.4043 60.2715 29.5975 61.105 28.7018C61.7502 28.145 62.3173 27.504 62.7911 26.7959C63.02 26.368 63.3913 26.0333 63.8409 25.8494C64.6108 25.5699 64.9161 24.8584 65.457 24.3755C66.1759 23.7403 66.7804 22.9525 67.4994 22.2982C67.7594 22.1097 67.9513 21.8423 68.0466 21.5359C68.1147 21.3378 68.2356 21.1621 68.3965 21.0276C68.74 20.6909 69.0964 20.7481 69.2236 21.1928C69.5736 22.3617 70.108 23.4925 69.9235 24.7758C69.8637 25.1304 69.9171 25.4949 70.0762 25.8176C70.2861 26.1861 70.1589 26.5672 70.2671 26.9357C70.3689 27.3512 70.4117 27.7789 70.3943 28.2063C70.3943 28.6128 70.318 29.0131 70.2989 29.4133C70.3126 29.6248 70.3126 29.837 70.2989 30.0486C70.1335 30.9697 70.1525 31.0015 71.0242 31.1349C71.1704 31.1484 71.314 31.1826 71.4505 31.2365C72.1997 31.5574 72.9229 31.9354 73.6138 32.3673C73.9766 32.6841 74.2266 33.1099 74.3264 33.5807C74.4473 34.0508 73.442 34.6797 73.0093 34.3558C72.1631 33.6951 71.2533 34.0889 70.3879 33.9873ZM66.3859 28.5747C66.1005 28.7707 65.8264 28.9828 65.5652 29.21C65.4353 29.341 65.3583 29.5151 65.3488 29.6992C65.3488 29.7754 65.616 29.8771 65.7751 29.9088C65.9142 29.931 66.0559 29.931 66.195 29.9088L66.3859 28.5747Z" fill="#E44435"/>
</g>
<defs>
<clipPath id="clip0">
<rect width="118" height="85" fill="white"/>
</clipPath>
</defs>
</svg>
