<svg width="1920" height="300" viewBox="0 0 1920 300" fill="none" xmlns="http://www.w3.org/2000/svg">
<mask id="mask0" style="mask-type:alpha" maskUnits="userSpaceOnUse" x="0" y="0" width="1920" height="300">
<rect x="1920" y="300" width="1920" height="300" transform="rotate(-180 1920 300)" fill="#C4C4C4"/>
</mask>
<g mask="url(#mask0)">
<path opacity="0.26" fill-rule="evenodd" clip-rule="evenodd" d="M115.728 39.3293C112.38 46.5171 109.163 53.6303 107.589 61.4855C105.944 69.6947 106.861 78.3494 107.591 86.6236C108.962 102.149 112.235 117.957 119.313 131.879C121.774 136.722 124.565 141.379 127.606 145.862C128.333 146.935 132.472 151.914 129.185 148.15C129.906 148.972 130.611 149.864 131.399 150.615C135.797 154.815 140.153 158.987 144.775 162.948C152.877 169.889 162.042 177.06 170.414 184.976C174.786 188.161 178.962 191.63 183.184 195.025C189.408 198.208 195.445 201.913 200.941 206.119C206.792 208.919 212.727 211.684 218.776 214.399C256.336 231.261 296.441 246.606 338.852 260.551C353.618 259.168 368.508 254.203 376.357 243.744C383.176 234.661 382.907 223.925 378.704 214.077C374.117 209.902 369.696 205.518 365.331 201.069C356.265 197.357 347.302 193.585 338.537 189.693C333.537 187.474 328.643 185.215 323.813 182.933C303.913 168.772 287.04 155.548 269.004 137.177C264.477 132.567 260.104 127.807 255.933 122.863C250.911 116.912 250.705 116.723 246.081 109.73C242.224 103.893 238.688 97.8298 235.563 91.5525C232.042 84.4738 232.02 84.3743 229.523 76.1958C227.749 70.3851 226.261 64.3909 225.355 58.3603C225.471 58.5879 224.985 53.328 224.942 52.3698C224.768 48.5942 224.786 44.8129 224.989 41.0431C225.01 40.6586 225.237 38.1148 225.327 36.862C225.481 35.9248 225.668 34.7103 225.666 34.7217C226.364 31.3899 227.154 28.0944 228.06 24.8142C230.06 17.5614 232.528 10.4368 234.034 3.05008C240.941 -30.8097 226.542 -61.1559 220.236 -93.8183C214.214 -124.995 210.849 -156.703 201.935 -187.2C202.676 -196.518 202.9 -205.841 203.637 -215.157C204.745 -229.129 207.278 -243.049 210.729 -256.954C218.079 -286.568 232.716 -315.363 252.941 -343.592C266.156 -362.034 282.8 -379.707 306.441 -395.827C330.954 -412.545 360.497 -426.877 397.715 -437.553C420.717 -444.152 445.17 -449.088 471.913 -451.286C490.707 -452.831 509.617 -453.057 528.424 -451.533C562.893 -448.736 589.901 -440.233 610.631 -427.315C623.729 -419.15 632.97 -410.009 639.815 -400.342C640.214 -399.778 640.008 -399.12 640.122 -398.2C634.911 -399.067 633.172 -401.157 630.486 -402.735C614.778 -411.966 596.286 -419.626 573.352 -424.754C547.687 -430.493 520.764 -432.391 492.493 -430.61C450.246 -427.95 414.579 -418.956 383.217 -405.973C348.019 -391.403 323.455 -373.353 305.663 -353.178C293.851 -339.784 286.436 -325.816 280.84 -311.624C271.778 -288.649 269.452 -265.47 272.609 -242.198C274.648 -227.174 278.96 -212.256 284.776 -197.427C290.911 -181.779 298.358 -166.249 303.436 -150.504C308.657 -134.321 306.948 -118.369 298.837 -102.473C291.365 -87.8317 284.094 -73.1616 279.281 -58.262C273.218 -39.4855 270.409 -20.5999 273.04 -1.64551C275.344 14.9277 281.542 31.1623 294.05 46.8671C306.888 62.9908 318.448 79.3287 332.588 95.2343C359.897 125.952 400.246 152.365 452.228 175.028C484.369 189.041 519.368 201.301 556.344 212.381C612.688 229.264 670.623 244.884 730.051 259.262C775.144 270.172 821.34 279.984 869.922 287.154C909.675 293.02 950.296 296.723 991.821 298.546C1022.41 299.889 1053.01 300.195 1083.6 299.894C1084.71 299.485 1085.98 299.265 1087.41 299.313C1104.59 299.906 1120.67 294.652 1136.83 289.531C1140.31 286.59 1143.06 282.751 1144.46 278.304C1144.71 277.503 1144.87 276.765 1144.99 276.053C1142.18 273.27 1138.98 270.68 1135.98 268.282C1123.25 266.272 1110.55 263.483 1097.95 261.018C1086.82 260.685 1075.69 260.279 1064.57 259.805C1025.89 258.16 987.76 255.096 949.999 250.907C894.456 244.745 841.845 234.939 790.931 223.071C751.719 213.93 712.51 204.772 674.711 194.388C630.374 182.209 589.143 168.12 553.298 150.808C520.893 135.157 494.941 117.528 478.666 97.0016C469.013 84.8238 463.836 72.1964 460.593 59.3319C457.674 47.7488 457.848 36.1447 457.95 24.5254C458.032 15.0616 458.681 5.58051 455.376 -3.81253C453.511 -9.11633 451.369 -14.3991 449.306 -19.6876C443.356 -34.9448 439.208 -50.2939 438.222 -65.8094C436.721 -89.423 426.627 -112.3 411.315 -134.751C401.521 -149.109 389.27 -163.047 378.407 -177.222C364.125 -195.858 350.315 -214.566 340.587 -233.857C330.949 -252.965 324.528 -272.3 325.631 -291.989C326.899 -314.604 336.233 -336.4 358.464 -356.736C379.493 -375.971 408.422 -391.927 449.396 -402.406C511.058 -418.174 571.394 -416.525 629.758 -398.338C631.259 -397.871 632.478 -397.204 633.758 -396.596C634.002 -396.479 633.927 -396.213 633.977 -396.012C634.112 -395.479 633.561 -395.151 632.37 -395.199C628.26 -395.368 624.114 -395.459 620.06 -395.788C603.653 -397.123 587.187 -397.978 570.484 -397.762C515.151 -397.051 469.405 -386.883 433.892 -367.167C405.8 -351.57 390.985 -333.277 385.637 -313.139C379.225 -289.005 389.477 -266.059 407.284 -243.606C416.096 -232.493 426.997 -221.813 438.49 -211.253C466.276 -185.723 497.515 -161.079 527.188 -136.033C543.5 -122.263 562.141 -109.186 580.36 -95.9796C597.612 -83.4766 613.604 -70.6656 626.558 -57.0475C631.606 -51.7437 637.515 -46.614 643.217 -41.4478C655.054 -30.7255 660.865 -19.349 661.214 -7.29932C661.51 2.84543 659.869 12.9117 656.476 22.9168C653.373 32.0651 651 41.2707 650.391 50.5069C649.091 70.2359 657.067 89.0297 679.132 106.19C704.564 125.969 737.221 142.808 775.178 157.497C821.751 175.52 873.604 189.356 929.553 199.992C988.003 211.103 1048.73 218.147 1111.09 222.348C1144.94 224.627 1178.99 225.544 1213.17 225.886C1255.17 226.309 1297.21 226.552 1339.11 227.745C1399.18 229.453 1458.13 234.56 1515.73 242.798C1538.66 246.078 1561.43 249.609 1584.27 253.04C1621.33 258.608 1654.07 267.142 1683.13 278.186C1698.31 278.941 1713.48 279.928 1728.69 279.746C1734.14 279.683 1739.54 279.28 1744.97 278.888C1747.28 278.444 1749.58 278.029 1751.87 277.47C1754.44 276.841 1756.99 276.116 1759.51 275.273C1759.74 275.196 1760.17 275.049 1760.67 274.873C1759.64 275.12 1764.62 273.023 1765.65 272.436C1767.75 271.248 1769.74 269.91 1771.76 268.597C1772.01 268.435 1772.19 268.326 1772.39 268.2C1772.58 268.006 1772.76 267.827 1773.01 267.584C1774.9 265.73 1776.86 263.965 1778.68 262.027C1780.16 260.448 1781.52 258.766 1782.92 257.116C1783.69 255.97 1785.13 253.941 1785.4 253.535C1789.38 247.407 1792.84 240.939 1796.02 234.34C1796.25 233.864 1797.16 231.783 1797.68 230.635C1797.9 230.063 1798.09 229.554 1798.12 229.443C1799.31 225.859 1800.52 222.292 1801.58 218.668C1805.48 205.394 1808.98 192.101 1813.4 179.326C1817.48 164.551 1821.12 149.661 1823.69 134.457C1823.82 133.702 1823.92 133.122 1824 132.673C1824.02 132.244 1824.06 131.642 1824.12 130.793C1824.45 126.225 1824.91 121.683 1825.12 117.106C1825.32 112.444 1825.46 107.757 1825.29 103.093C1825.24 101.732 1824.81 96.6459 1824.92 96.7281C1822.56 80.4878 1817.35 64.7696 1814.7 48.577C1811.69 30.1983 1809.63 10.6873 1815.66 -7.37579C1820.59 -22.1205 1828.83 -35.2145 1839.64 -46.2219C1857.56 -64.4571 1880.25 -75.9675 1902.14 -88.2448C1904.22 -89.9643 1906.33 -91.6761 1908.5 -93.3803C1933.75 -113.148 1959.67 -132.731 1985.24 -152.411C2003.34 -166.344 2015.78 -181.288 2021.97 -197.347C2027.57 -211.854 2027.72 -226.44 2024.75 -241.049C2018.36 -272.464 1996.64 -301.854 1969.65 -330.515C1958.53 -342.324 1946.85 -354.018 1935.64 -365.809C1923.68 -378.4 1912.85 -391.185 1906.3 -404.671C1904.24 -408.934 1902.71 -413.19 1901.77 -417.438C1899.38 -422.286 1898.1 -427.625 1898.4 -433.034C1899.42 -451.634 1908.2 -467.377 1918.97 -481.898C1930.41 -497.31 1942.73 -511.908 1955.22 -526.421C1961.18 -533.339 1967.15 -540.249 1973.02 -547.242C1978.56 -553.831 1983.54 -561.553 1989.53 -567.696C1989.59 -567.78 1989.65 -567.862 1989.71 -567.945C1990.74 -569.36 1991.76 -570.785 1992.77 -572.221C1995 -575.404 1997.16 -578.634 1999.2 -581.941C1999.95 -583.154 2000.68 -584.38 2001.4 -585.616C2001.38 -585.925 2001.37 -586.277 2001.35 -586.698C2001.24 -587.077 2001.12 -587.458 2001.01 -587.836C2000.61 -588.41 1999.29 -590.221 1998.58 -591.302C1997.54 -592.35 1996.37 -593.576 1996.1 -593.871C1995.64 -594.37 1995.32 -594.739 1995.06 -595.057C1994.72 -595.19 1994.26 -595.408 1993.58 -595.77C1991.28 -597.007 1984.75 -598.853 1991.73 -597.107C1989.05 -597.778 1986.33 -598.696 1983.65 -599.421C1983.35 -599.502 1983.13 -599.567 1982.9 -599.633C1980.16 -599.756 1977.44 -600.035 1974.7 -600.106C1972.51 -600.163 1970.32 -600.148 1968.13 -600.135C1962.44 -598.591 1956.78 -597.023 1951.19 -595.395C1928.84 -588.886 1907.53 -581.712 1887.24 -573.876C1841.93 -556.379 1808.78 -534.689 1784.25 -509.888C1765.4 -490.823 1752.45 -470.946 1743.75 -450.406C1739.73 -440.919 1735.11 -431.484 1731.33 -421.977C1726.25 -409.16 1727.05 -396.299 1731.14 -383.44C1736.95 -365.228 1750.18 -348.035 1763.87 -330.892C1774 -318.198 1784.21 -305.515 1793.97 -292.757C1804.39 -279.137 1811.26 -265.1 1814.57 -250.715C1817.34 -238.624 1815.65 -226.574 1809.4 -214.821C1800.52 -198.123 1792.64 -181.322 1784 -164.602C1772.32 -141.969 1755.11 -120.178 1736.61 -98.5961C1728.4 -89.0118 1720.07 -79.4408 1712.54 -69.7418C1696.76 -49.4427 1690.72 -28.459 1693.88 -6.92444C1694.88 -0.050354 1697.49 6.73383 1700.53 13.4702C1706.52 26.7517 1710.44 40.1709 1712.41 53.6972C1714.1 65.3261 1712.51 76.8958 1708.45 88.4176C1703.58 102.208 1699.3 116.048 1690.89 129.501C1684.39 139.891 1675.36 149.686 1660.87 158.333C1644.63 168.028 1623.46 174.105 1598.88 177.991C1576.35 181.551 1553.08 182.997 1529.45 183.249C1509.61 183.461 1489.8 183.184 1469.96 182.494C1446.96 181.69 1423.85 181.415 1400.78 181.233C1364.3 180.946 1327.9 180.244 1291.57 178.567C1272.75 177.697 1253.81 177.402 1234.94 176.796C1207.32 175.908 1179.65 175.292 1152.3 173.041C1080.03 167.093 1012.3 155.778 952.081 135.823C909.72 121.786 877.59 103.82 858.187 81.1648C850.292 71.9478 844.503 62.438 840.507 52.6988C836.257 42.3398 833.751 31.8795 831.601 21.3771C828.581 6.61334 826.791 -8.21738 821.055 -22.853C814.895 -38.5693 801.8 -52.7421 781.952 -65.8285C757.324 -82.065 729.346 -96.9302 699.344 -110.935C656.086 -131.128 617.798 -153.113 584.733 -177.091C559.278 -195.552 533.836 -214.021 508.906 -232.637C493.979 -243.782 481.259 -255.497 471.501 -267.864C461.217 -280.897 454.601 -294.303 455.671 -308.244C457.67 -334.323 480.011 -355.567 526.025 -371.033C543.433 -376.884 562.535 -381.147 582.602 -384.462C597.817 -386.973 613.403 -388.995 628.826 -391.232C629.267 -391.296 629.725 -391.336 630.179 -391.376C632.422 -391.577 635.206 -392.091 636.699 -391.183C638.318 -390.198 636.2 -389.201 634.759 -388.409C632.673 -387.262 630.458 -386.16 628.202 -385.083C620.458 -381.39 612.707 -377.698 604.898 -374.034C590.871 -367.451 577.991 -360.42 566.933 -352.7C544.799 -337.25 536.048 -320.309 540.304 -301.791C543.495 -287.92 552.559 -274.893 564.819 -262.306C586.828 -239.716 613.596 -218.374 644.298 -198.119C658.17 -188.967 673.458 -180.309 690.841 -172.56C723.553 -157.978 754.788 -142.723 786.491 -127.68C802.346 -120.156 818.51 -112.784 835.527 -105.824C858.189 -96.5553 878.14 -86.1486 895.233 -74.5693C903.863 -68.7224 912.381 -62.839 920.87 -56.9461C936.416 -46.1511 947.364 -34.327 956.904 -22.1702C966.895 -9.43954 977.666 3.14572 990.802 15.2586C1008.21 31.3115 1029.4 46.0676 1057.86 58.4138C1093.92 74.0459 1136.11 84.097 1184.03 89.0469C1220.05 92.767 1256.37 92.8646 1292.84 90.95C1312.1 89.9382 1331.37 88.9494 1350.58 87.7884C1367.54 86.7632 1384.25 85.1355 1400.42 82.4578C1440.63 75.7922 1468.69 63.2968 1484.04 44.6676C1490.7 36.5885 1494.97 28.2359 1497.09 19.6634C1503.39 -5.83423 1503.59 -31.4313 1502.05 -57.0398C1501.68 -63.2674 1500.28 -69.4874 1499.16 -75.7016C1498.78 -77.8151 1498.47 -79.9286 1498.18 -82.0402C1492.81 -86.2403 1489.12 -92.8046 1489.08 -101.779C1488.85 -149.943 1479.41 -199.334 1492.42 -246.67C1498.33 -268.193 1510.29 -287.037 1520.55 -306.557C1530.43 -325.347 1535.03 -343.63 1540.54 -364.811C1546.47 -387.574 1552.34 -410.357 1557.34 -433.355C1561.41 -452.112 1561.03 -470.451 1561.39 -491.626C1561.67 -507.717 1562.74 -524.973 1568.79 -540.115C1568.76 -540.488 1568.71 -540.842 1568.7 -541.225C1568.57 -544.664 1568.42 -548.099 1568.12 -551.528C1568.03 -552.552 1567.81 -554.133 1567.68 -555.044C1567.55 -555.686 1567.42 -556.333 1567.27 -556.97C1567.09 -557.565 1566.9 -558.158 1566.71 -558.75C1567.81 -555.174 1565.57 -560.828 1564.98 -562.057C1564.71 -562.614 1564.53 -563.018 1564.39 -563.349C1564.23 -563.477 1564.05 -563.637 1563.81 -563.867C1563.11 -564.542 1562.41 -565.232 1561.72 -565.921C1561.25 -566.3 1559.72 -567.623 1558.89 -568.115C1558.32 -568.451 1557.73 -568.74 1557.15 -569.05C1556.2 -569.161 1554.86 -569.482 1553.62 -569.863C1553.47 -569.84 1552.82 -570.016 1551.57 -570.573C1551.23 -570.624 1550.85 -570.662 1550.44 -570.674C1548.48 -570.735 1546.56 -570.575 1544.61 -570.5C1551.43 -570.762 1543.31 -570.066 1541.55 -569.551C1540.67 -569.295 1537.78 -568.115 1537.63 -568.134C1536.37 -567.487 1535.13 -566.812 1533.92 -566.082C1532.62 -565.296 1531.35 -564.464 1530.11 -563.586C1528.06 -561.839 1526.14 -559.948 1524.26 -558.006C1521.54 -555.191 1518.63 -553.242 1515.67 -551.984C1512.92 -548.518 1510.2 -545.048 1507.53 -541.569C1490.52 -519.47 1477.25 -496.884 1466.82 -473.932C1458.51 -455.626 1451.85 -437.184 1446.81 -418.616C1436.46 -380.497 1417.66 -343.317 1389.2 -307.232C1378.99 -294.286 1371.47 -280.979 1364.59 -267.598C1356.2 -251.293 1347.35 -235.028 1340.75 -218.533C1336.36 -207.543 1332.51 -196.507 1328.04 -185.524C1319.48 -164.497 1306.58 -144.146 1283.92 -125.356C1269.03 -113.014 1250.49 -102.125 1225.43 -93.9178C1190.64 -82.5222 1152.14 -78.1594 1109.92 -80.883C1069.3 -83.5014 1032.72 -91.0392 998.615 -101.213C965.154 -111.193 931.106 -120.701 896.737 -129.958C844.325 -144.073 798.112 -161.744 756.654 -182.204C738.903 -190.966 721.479 -199.869 703.608 -208.578C686.877 -216.727 673.422 -225.973 661.475 -235.695C634.831 -257.371 616.129 -280.392 609.227 -305.293C605.956 -317.1 606.374 -328.91 610.89 -340.648C616.78 -355.961 628.025 -370.547 639.049 -385.16C639.346 -385.552 639.972 -385.896 640.526 -386.235C640.764 -386.382 641.18 -386.516 641.561 -386.552C642.713 -386.659 643.444 -386.447 643.542 -385.976C643.72 -385.125 643.987 -384.268 643.93 -383.417C643.407 -375.675 642.914 -367.931 642.24 -360.19C639.451 -328.147 648.806 -297.109 677.138 -267.614C687.956 -256.352 701.574 -245.915 718.751 -236.499C741.209 -224.191 764.565 -212.309 791.01 -201.792C833.178 -185.021 881.196 -174.205 936.349 -170.916C983.423 -168.106 1029.53 -170.347 1073.7 -178.71C1126.9 -188.782 1165.18 -206.533 1191.98 -229.906C1205.82 -241.98 1215.62 -254.826 1224.33 -267.855C1230.28 -281.523 1234.89 -295.445 1235.59 -311.452C1236.9 -341.211 1234.36 -370.348 1240.27 -399.809C1244.9 -422.881 1254.18 -446.393 1269.9 -464.011C1276.93 -471.895 1288.77 -479.192 1295.15 -484.36C1299.8 -488.116 1304.64 -494.889 1306.28 -499.724C1310.27 -511.531 1310.7 -517.19 1310.24 -529.929C1310.2 -530.99 1310.12 -532.05 1310.06 -533.109C1309.32 -533.838 1308.6 -534.578 1307.84 -535.292C1307.41 -535.688 1307.12 -535.977 1306.87 -536.223C1306.54 -536.393 1306.08 -536.648 1305.42 -537.042C1303.37 -538.268 1301.42 -539.66 1299.36 -540.882C1298.48 -541.406 1297.57 -541.887 1296.68 -542.39C1295.99 -542.25 1295.3 -542.137 1294.61 -541.986C1290.33 -541.053 1286.07 -539.982 1281.85 -538.8C1276.26 -537.235 1270.77 -535.361 1265.35 -533.268C1264.69 -533.014 1264.35 -532.897 1264.2 -532.857C1263.9 -532.715 1263.58 -532.564 1263.19 -532.381C1260.91 -531.312 1258.65 -530.223 1256.41 -529.058C1249.66 -525.539 1243.24 -521.463 1237.08 -516.972C1237.44 -517.15 1232.47 -513.214 1231.89 -512.707C1230.43 -511.406 1228.99 -510.075 1227.58 -508.717C1224.47 -505.745 1221.49 -502.643 1218.64 -499.418C1217.35 -497.955 1216.12 -496.434 1214.84 -494.956C1214.45 -494.501 1213.43 -493.217 1212.91 -492.573C1210.63 -489.487 1208.46 -486.307 1206.38 -483.074C1186.1 -451.517 1177.22 -420.873 1167.83 -382.344C1166.69 -377.635 1164.16 -373.594 1160.82 -370.444C1158.92 -366.691 1156.67 -363.155 1154.76 -359.419C1153.79 -356.895 1152.48 -354.574 1150.81 -352.469C1144.03 -337.187 1136.7 -321.968 1125.9 -307.156C1119.35 -298.188 1112.1 -289.349 1102.98 -280.878C1082.68 -262.033 1054.64 -246.337 1016.05 -235.024C994.351 -228.662 971.037 -224.089 945.758 -221.911C901.982 -218.137 860.297 -220.903 821.044 -230.872C806.814 -234.486 793.499 -238.717 781.002 -243.543C764.238 -250.015 748.9 -257.151 734.576 -264.766C713.265 -276.094 698.915 -289.278 687.821 -303.313C678.38 -315.258 671.769 -327.57 666.66 -340.038C661.383 -352.918 656.967 -365.874 652.201 -378.8C652.047 -379.219 652.188 -379.659 652.193 -380.089C650.443 -381.541 649.5 -383.079 649.893 -384.76C649.736 -385.181 649.531 -385.598 649.443 -386.02C649.404 -386.217 649.511 -386.441 649.68 -386.629C650.175 -387.18 650.828 -387.246 651.711 -386.954C654.529 -386.022 655.45 -384.521 656.832 -383.19C665.898 -374.468 673.052 -365.383 680.302 -356.313C689.483 -344.828 698.616 -333.327 710.738 -322.411C716.262 -317.436 722.387 -312.634 729.308 -308.051C740.588 -300.586 754.045 -294.148 770.545 -289.167C777.902 -286.947 785.276 -284.724 792.871 -282.689C845.57 -268.562 909.255 -270.49 958.521 -289.315C982.903 -298.631 1000.75 -310.27 1014.65 -323.326C1028.25 -336.108 1037.12 -349.678 1045.08 -363.39C1052.44 -376.065 1057.93 -388.922 1061.1 -401.976C1062.4 -407.318 1063.7 -412.671 1064.3 -418.036C1065.63 -430.067 1066.63 -442.105 1067.57 -454.144C1069 -472.633 1070.2 -491.127 1071.63 -509.618C1072.31 -518.439 1072.46 -527.251 1071.49 -536.072C1070.86 -541.873 1070.96 -547.692 1070.3 -553.491C1068.26 -571.602 1063.97 -589.548 1054.8 -607.148C1053.78 -607.735 1052.75 -608.319 1051.71 -608.866C1050.43 -609.543 1049.13 -610.189 1047.82 -610.807C1042.25 -612.844 1036.66 -614.629 1030.85 -615.822C1029.68 -616.063 1028.5 -616.27 1027.32 -616.471C1027.13 -616.492 1026.96 -616.513 1026.73 -616.538C1023.79 -616.715 1020.88 -616.976 1017.93 -616.998C1015.01 -617.021 1012.12 -616.767 1009.2 -616.673C1008.69 -616.618 1008.3 -616.578 1007.97 -616.545C1007.09 -616.39 1006.21 -616.249 1005.34 -616.067C1002.55 -615.486 999.795 -614.768 997.084 -613.898C995.899 -613.519 994.728 -613.101 993.563 -612.663C988.711 -610.295 983.903 -607.514 979.619 -604.188C979.984 -604.323 975.06 -599.848 974.531 -599.301C973.95 -598.7 969.746 -593.488 970.033 -594.115C968.497 -591.874 967.054 -589.565 965.743 -587.182C965.359 -586.482 962.706 -580.769 962.736 -581.153C960.652 -575.71 959.09 -570.033 957.865 -564.339C957.285 -561.65 956.814 -558.942 956.375 -556.228C956.645 -557.603 955.689 -550.243 955.614 -549.371C955.977 -548.284 956.351 -547.198 956.679 -546.108C963.047 -524.958 963.85 -503.681 963.19 -482.367C962.715 -467.085 961.733 -451.812 959.202 -436.581C956.205 -418.545 950.907 -400.673 937.81 -383.494C929.236 -372.247 917.519 -361.823 901.269 -352.559C890.95 -346.675 878.939 -341.67 864.859 -337.818C827.185 -327.512 790.149 -328.297 754.043 -339.514C739.723 -343.965 727.798 -349.693 716.862 -355.843C706.549 -361.64 696.532 -367.554 686.418 -373.428C678.322 -378.131 669.817 -382.664 660.633 -386.916C658.999 -387.673 657.292 -388.427 656.026 -389.31C655.367 -389.771 655.378 -390.521 655.553 -391.112C655.611 -391.305 657.189 -391.575 657.976 -391.519C661.612 -391.261 665.255 -390.98 668.817 -390.565C678.22 -389.469 687.588 -388.308 696.964 -387.159C713.18 -385.171 729.715 -384.508 746.395 -384.842C769.941 -385.315 790.382 -389.26 807.142 -397.123C823.723 -404.902 835.073 -414.182 843.302 -424.358C851.978 -435.086 856.986 -446.216 860.106 -457.561C862.985 -468.031 864.968 -478.541 864.433 -489.094C863.561 -506.348 859.686 -523.439 848.517 -540.003C837.559 -556.254 820.766 -570.89 794.079 -582.852C769.899 -593.687 741.196 -600.773 709.578 -605.471C684.863 -609.143 659.434 -611.15 633.613 -612.33C608.26 -613.489 582.887 -613.762 557.528 -613.079C482.309 -611.054 409.542 -603.671 339.278 -590.935C258.85 -576.357 188.364 -555.574 127.694 -528.613C122.927 -522.485 118.08 -516.42 114.023 -509.779C108.405 -500.581 106.49 -494.843 113.498 -486.093C117.433 -481.175 128.622 -482.858 137.501 -485.15C148.801 -488.066 159.617 -492.534 170.624 -496.381C198.861 -511.429 230.641 -524.902 266.854 -536.393C331.999 -557.062 403.607 -570.19 481.555 -575.58C519.617 -578.212 557.882 -578.558 596.078 -575.976C623.66 -574.111 650.105 -570.513 674.9 -564.418C708.254 -556.216 733.675 -544.297 750.19 -528.594C776.544 -503.534 783.004 -477.283 768.119 -450.136C757.446 -430.677 732.769 -415.837 696.844 -404.988C684.082 -401.136 671.208 -397.296 656.011 -395.739C655.662 -395.628 655.341 -395.488 654.96 -395.415C653.414 -395.121 651.465 -394.679 650.49 -395.526C649.582 -396.314 651.28 -396.884 652.638 -397.332C660.967 -403.261 670.291 -408.865 677.86 -415.053C693.876 -428.149 704.037 -442.036 706.437 -457.122C707.716 -465.155 705.757 -473.088 701.447 -480.781C687.556 -505.561 656.504 -523.846 605.35 -534.054C569.364 -541.236 531.598 -543.323 492.827 -541.709C429.126 -539.056 372.817 -529.51 322.616 -514.314C313.808 -509.195 304.642 -499.366 305.205 -490.562C305.884 -479.953 320.469 -478.302 331.997 -479.138C366.507 -491.71 405.19 -500.719 448.608 -505.533C480.441 -509.062 512.504 -509.821 544.645 -506.328C607.558 -499.491 650.666 -478.668 659.683 -448.124C662.961 -437.029 661.726 -425.773 656.311 -414.747C654.255 -410.562 651.976 -406.398 649.608 -402.247C649.205 -401.538 648.554 -400.503 645.964 -400.893C644.377 -401.132 644.238 -401.838 644.099 -402.443C643.022 -407.146 642.221 -411.864 640.942 -416.554C638.605 -425.129 634.182 -433.452 626.455 -441.357C605.812 -462.473 570.426 -474.437 521.566 -477.872C483.294 -480.563 447.218 -476.738 412.617 -469.255C376.132 -461.366 344.736 -450.188 317.068 -436.668C284.584 -420.794 258.861 -402.745 239.093 -382.899C210.692 -354.383 187.458 -324.936 167.249 -294.947C157.94 -281.132 149.658 -267.183 141.448 -253.225C132.839 -216.498 134.777 -178.505 137.034 -140.478C138.354 -118.266 144.863 -96.6318 145.156 -74.3322C145.424 -53.861 141.149 -33.2674 135.546 -13.7105C130.32 4.53049 123.723 22.1709 115.728 39.3293Z" fill="white"/>
</g>
</svg>
