<svg width="871" height="540" viewBox="0 0 871 540" fill="none" xmlns="http://www.w3.org/2000/svg">
<path d="M56.7276 70.6182C59.4975 70.6182 64.0301 70.6988 66.8 70.8197L68.8145 70.9103C71.5844 71.0312 76.1069 71.2931 78.8869 71.4945L80.9619 71.6456C84.3008 71.9279 87.616 72.4428 90.8832 73.1867L92.8977 73.6702C95.5871 74.3148 99.9484 75.6343 102.527 76.5811L104.481 77.3063C107.614 78.5009 110.677 79.8695 113.657 81.4058L115.52 82.413C118.445 84.0365 121.219 85.9175 123.81 88.0335L125.401 89.3832C127.507 91.1861 130.911 94.1777 132.946 96.0511L134.467 97.4411C136.905 99.7375 139.183 102.198 141.286 104.804L142.464 106.315C144.166 108.491 146.795 112.187 148.286 114.514L149.293 116.115C151.072 118.955 152.673 121.902 154.088 124.939L154.863 126.661C156.012 129.189 157.784 133.359 158.812 135.928L159.517 137.711C160.725 140.837 161.734 144.036 162.539 147.29L162.972 149.173C163.596 151.873 164.382 156.325 164.724 159.074L164.966 160.988C165.309 163.738 165.711 168.25 165.863 171.061L165.963 172.995C166.104 175.764 166.145 180.287 166.044 183.067V184.306C165.953 187.076 165.57 191.588 165.208 194.328L165.047 195.557C164.575 198.877 163.936 202.172 163.133 205.428L162.831 206.596C162.136 209.286 160.816 213.647 159.89 216.226L159.497 217.333C158.58 219.942 156.828 224.122 155.619 226.61L155.105 227.617C153.896 230.115 151.711 234.084 150.26 236.441L149.646 237.448C147.855 240.284 145.911 243.021 143.824 245.647L143.048 246.604C140.885 249.168 138.528 251.563 135.998 253.766L134.608 254.944C132.493 256.737 128.907 259.497 126.64 261.088L125.13 262.146C122.36 264.026 119.45 265.693 116.427 267.132L114.745 267.907C111.68 269.269 108.535 270.443 105.327 271.423L103.544 271.946C100.316 272.838 97.0366 273.531 93.7236 274.021L91.9106 274.253C89.1608 274.615 84.6484 274.968 81.8382 275.028H80.0251C77.2552 275.089 72.7226 275.028 69.9527 274.867L68.1296 274.777C65.3596 274.626 60.8573 274.192 58.1175 273.769L55.4785 273.397C52.7388 273.014 48.2566 272.389 45.5169 271.936L42.888 271.543L32.9364 270.002L30.3176 269.589C27.5779 269.156 23.1158 268.371 20.3962 267.857L17.7875 267.353C15.0679 266.84 10.636 265.903 7.93661 265.278L5.50915 264.724C4.14835 264.356 2.94486 263.554 2.08137 262.44C1.21789 261.325 0.741568 259.96 0.724736 258.55V256.697C0.78517 253.927 0.724739 249.394 0.634087 246.624L0.553506 244.61C0.432637 241.84 0.301686 237.307 0.261396 234.537V232.523C0.261396 229.753 0.261407 225.22 0.382276 222.45L0.462858 220.436C0.583727 217.666 0.714662 213.133 0.754952 210.363V208.349C0.754952 205.579 0.754952 201.046 0.754952 198.276V196.262C0.684445 193.492 0.533352 188.959 0.40241 186.189L0.311762 184.175C0.190892 181.405 0.231188 176.883 0.412492 174.103L0.543424 172.038C0.714655 169.278 0.775095 164.745 0.67437 161.965L0.603871 159.951C0.503147 157.181 0.352049 152.658 0.261396 149.878L0.190897 147.864C0.110318 145.094 0.0398014 140.561 0.0398014 137.791V135.777C0.0398014 133.007 0.130466 128.474 0.241263 125.704L0.321844 123.69C0.422569 120.93 0.56358 116.397 0.634087 113.617V111.603C0.704595 108.833 0.634087 104.3 0.52329 101.531L0.432626 99.5161C0.311757 96.7461 0.150607 92.2236 0.0800998 89.4436L0.0297345 87.4291C-0.0407726 84.6592 0.0297376 80.1266 0.0800998 77.3567L0.150599 75.2515C0.228692 73.9102 0.808809 72.6473 1.77555 71.7142C2.7423 70.781 4.02485 70.2459 5.36813 70.2153H7.62437C10.3842 70.2153 14.9168 70.316 17.6968 70.5175L19.9127 70.6686C23.2675 70.8611 26.6305 70.8611 29.9852 70.6686L32.2011 70.5175C35.556 70.3304 38.9187 70.3304 42.2736 70.5175L44.4795 70.6786C47.2494 70.87 51.7719 71.011 54.5519 71.001L56.7276 70.6182ZM45.1543 228.373C45.1546 229.751 45.6437 231.084 46.5345 232.135C47.4253 233.186 48.6601 233.888 50.0193 234.114L52.0942 234.406C55.4188 234.844 58.7641 235.107 62.1163 235.192H63.6473C66.4172 235.192 70.9398 235.091 73.7198 234.88L75.2004 234.769C78.5276 234.45 81.8205 233.84 85.0412 232.946L86.4513 232.533C89.6275 231.504 92.6836 230.136 95.5669 228.453L96.7655 227.718C99.5724 225.906 102.191 223.817 104.582 221.483L106.908 219.106C109.163 216.663 111.043 213.9 112.489 210.907L113.869 207.805C115.194 204.727 116.311 201.564 117.213 198.337L118.069 195.073C118.873 191.825 119.419 188.517 119.7 185.182L119.942 181.788C120.134 179.028 120.174 174.505 120.043 171.715L119.922 169.298C119.69 165.964 119.147 162.66 118.3 159.427L117.646 157.12C116.69 153.906 115.554 150.748 114.241 147.662L113.304 145.517C111.907 142.474 110.263 139.55 108.389 136.774L107.049 134.86C105.076 132.164 102.839 129.67 100.371 127.417L98.1051 125.402C95.5446 123.251 92.7819 121.351 89.8558 119.731L87.2067 118.321C84.2224 116.813 81.1157 115.559 77.92 114.574L75.009 113.738C71.7765 112.853 68.4937 112.164 65.1783 111.673L62.1566 111.261C59.4068 110.898 54.8944 110.485 52.1345 110.364L49.9891 110.263C49.3303 110.226 48.671 110.324 48.0514 110.551C47.4318 110.778 46.8651 111.129 46.386 111.583C45.907 112.036 45.5256 112.583 45.2653 113.189C45.0049 113.795 44.8712 114.448 44.8723 115.108V117.606C44.8723 120.376 44.8723 124.909 44.9629 127.679L45.0234 129.895C45.104 132.664 45.245 137.197 45.3255 139.967L45.396 142.183C45.4867 144.953 45.5068 149.485 45.4565 152.255L45.4061 154.471C45.3457 157.241 45.4061 161.774 45.4565 164.544L45.527 166.76C45.6076 169.53 45.6781 174.062 45.6781 176.832V179.048C45.6781 181.818 45.6781 186.351 45.6781 189.121V191.336C45.6781 194.106 45.6277 198.639 45.5773 201.409V203.625C45.527 206.395 45.4766 210.927 45.4565 213.697V215.903C45.4565 218.673 45.3658 223.206 45.3054 225.976L45.1543 228.373Z" fill="#00619C"/>
<path d="M357.309 185.746C357.309 188.516 357.228 193.048 357.117 195.818L357.047 197.359C356.936 200.129 356.674 204.652 356.473 207.432L356.362 209.003C356.077 212.32 355.555 215.612 354.801 218.854L354.418 220.395C353.573 223.643 352.564 226.847 351.396 229.994L350.832 231.475C349.611 234.597 348.212 237.648 346.642 240.61L345.877 242.021C344.22 244.923 342.305 247.67 340.155 250.23L339.148 251.428C337.325 253.523 334.283 256.877 332.379 258.892L331.513 259.819C329.18 262.221 326.654 264.427 323.959 266.416L322.952 267.151C320.197 269.062 317.343 270.823 314.4 272.429L313.282 273.023C310.3 274.542 307.205 275.828 304.026 276.871L302.837 277.244C300.188 278.07 295.786 279.258 293.137 279.963L291.898 280.276C288.636 281.044 285.329 281.613 281.997 281.978L280.708 282.099C277.948 282.371 273.425 282.612 270.635 282.643H267.503C264.733 282.643 260.21 282.471 257.43 282.2L254.308 281.877C250.981 281.492 247.691 280.842 244.467 279.933L241.445 279.027C238.258 278.014 235.173 276.705 232.229 275.119L229.5 273.567C226.632 271.868 223.934 269.898 221.442 267.685L219.145 265.59C216.71 263.289 214.419 260.84 212.286 258.257L211.369 257.099C209.31 254.454 207.419 251.682 205.708 248.799L204.983 247.53C203.347 244.603 201.861 241.594 200.531 238.515L199.947 237.125C198.692 234.016 197.616 230.838 196.724 227.607L196.321 226.096C195.517 222.846 194.938 219.545 194.588 216.215L194.457 214.664C194.206 211.904 193.863 207.381 193.692 204.591L193.601 203.04C193.42 200.27 193.289 195.748 193.289 192.968V191.457C193.289 188.687 193.289 184.154 193.289 181.384V179.974C193.289 177.204 193.35 172.672 193.4 169.902V168.391C193.45 165.621 193.511 161.088 193.531 158.318V156.798C193.531 154.028 193.531 149.495 193.43 146.725V145.214C193.36 142.444 193.319 137.912 193.349 135.142V133.631C193.349 130.861 193.41 126.328 193.43 123.558V122.038C193.43 119.268 193.43 114.735 193.43 111.965V110.444C193.43 107.674 193.43 103.142 193.43 100.372V98.8608C193.43 96.0909 193.581 91.5583 193.692 88.7884L193.752 87.2574C193.863 84.4975 193.964 79.9649 193.984 77.1849V75.9964C194.008 74.6529 194.541 73.3687 195.476 72.4038C196.412 71.4388 197.678 70.8652 199.02 70.799H199.786C202.556 70.7083 207.088 70.5875 209.858 70.5371H210.976C213.746 70.4867 218.269 70.5371 221.049 70.658H222.177C224.937 70.7688 229.469 70.8795 232.249 70.8795H233.005C234.344 70.8897 235.626 71.4214 236.58 72.3617C237.533 73.302 238.083 74.5769 238.111 75.9158V78.0612C238.111 80.8311 238.283 85.3637 238.404 88.1337L238.504 90.6115C238.625 93.3814 238.585 97.914 238.414 100.684L238.263 103.172C238.091 105.942 238.031 110.464 238.132 113.244L238.212 115.722C238.313 118.492 238.464 123.025 238.545 125.795L238.625 128.272C238.706 131.042 238.776 135.565 238.766 138.345V140.823C238.766 143.593 238.675 148.125 238.575 150.895L238.484 153.363C238.373 156.133 238.242 160.665 238.182 163.435L238.122 165.913C238.061 168.673 238.122 173.206 238.222 175.986L238.333 178.463C238.454 181.223 238.615 185.756 238.676 188.536L238.736 191.004C238.806 193.773 238.917 198.306 238.978 201.076L239.028 203.141C239.174 206.478 239.657 209.792 240.468 213.032L241.002 214.986C241.947 218.19 243.201 221.293 244.749 224.253L245.756 226.086C247.461 228.877 249.81 231.219 252.606 232.915L256.635 235.101C259.601 236.605 262.765 237.683 266.032 238.304L270.605 239.029C273.904 239.457 277.246 239.427 280.537 238.938H280.678C283.961 238.294 287.181 237.357 290.297 236.138L290.428 236.088C293.462 234.731 296.285 232.943 298.808 230.78L298.909 230.689C301.325 228.376 303.422 225.751 305.144 222.883L306.151 221.009C307.713 218.062 308.946 214.951 309.827 211.733L310.341 209.718C311.114 206.456 311.683 203.15 312.043 199.817L312.245 197.631C312.507 194.871 312.728 190.349 312.728 187.559V185.423C312.728 182.653 312.728 178.121 312.648 175.351V173.216C312.648 170.446 312.587 165.913 312.648 163.143V160.998C312.648 158.228 312.799 153.695 312.93 150.925L313.04 148.77C313.171 146 313.202 141.477 313.111 138.697L313.04 136.552C312.94 133.782 312.869 129.249 312.879 126.479V124.344C312.879 121.574 312.819 117.042 312.718 114.272L312.637 112.126C312.547 109.356 312.567 104.834 312.708 102.054L312.809 99.8983C312.94 97.1384 312.94 92.6058 312.809 89.8258L312.698 87.6703C312.567 84.9105 312.567 80.3779 312.698 77.5979L312.799 75.664C312.888 74.3013 313.475 73.019 314.448 72.0608C315.422 71.1026 316.713 70.5352 318.077 70.4666H318.943C321.713 70.3759 326.245 70.2853 329.015 70.2752H330.133C332.903 70.2752 337.436 70.2047 340.206 70.1443H341.314C344.084 70.0939 348.616 70.1443 351.386 70.3054H352.172C353.53 70.3991 354.805 70.9923 355.752 71.9706C356.699 72.9489 357.25 74.2431 357.299 75.6035V77.2756C357.349 80.0455 357.43 84.5781 357.48 87.348V89.3625C357.48 92.1324 357.55 96.665 357.48 99.4349V101.449C357.48 104.219 357.48 108.752 357.48 111.522V113.536C357.48 116.306 357.571 120.829 357.671 123.609L357.752 125.623C357.853 128.393 357.863 132.926 357.752 135.696L357.681 137.71C357.601 140.48 357.42 145.013 357.289 147.783L357.198 149.797C357.067 152.567 357.067 157.1 357.198 159.87L357.289 161.884C357.42 164.644 357.46 169.177 357.379 171.957V173.971C357.299 176.741 357.248 181.274 357.258 184.043L357.309 185.746Z" fill="#00619C"/>
<path d="M478.692 106.335C478.024 106.324 477.36 106.447 476.74 106.695C476.119 106.943 475.555 107.313 475.078 107.781C474.602 108.25 474.224 108.809 473.966 109.425C473.708 110.041 473.575 110.703 473.575 111.371V113.265C473.575 116.035 473.575 120.557 473.726 123.337L473.807 125.07C473.937 127.84 474.018 132.372 473.998 135.142V136.865C473.998 139.635 473.998 144.167 473.998 146.937V148.67C473.998 151.439 474.078 155.972 474.129 158.742V160.464C474.179 163.234 474.068 167.767 473.897 170.537L473.796 172.289C473.615 175.049 473.555 179.582 473.645 182.362L473.696 184.094C473.786 186.864 473.817 191.397 473.766 194.167V195.889C473.766 198.659 473.686 203.192 473.706 205.962V207.694C473.706 210.464 473.706 214.986 473.615 217.766V219.509C473.545 222.279 473.615 226.801 473.716 229.581L473.796 231.314C473.927 234.084 474.028 238.616 474.018 241.386V243.028C474.018 245.798 474.018 250.331 474.018 253.101V254.873C473.974 256.252 473.445 257.571 472.524 258.598C471.602 259.624 470.348 260.292 468.982 260.484L467.783 260.615C465.033 260.937 460.521 261.431 457.771 261.723L456.603 261.844C453.853 262.136 449.341 262.579 446.581 262.851L445.412 262.962C442.652 263.213 438.14 263.596 435.34 263.818L434.333 263.888C433.693 263.949 433.049 263.872 432.441 263.664C431.834 263.455 431.278 263.12 430.811 262.679C430.344 262.239 429.976 261.704 429.732 261.11C429.488 260.516 429.374 259.876 429.397 259.235V257.472C429.397 254.702 429.488 250.17 429.488 247.4V245.446C429.488 242.676 429.427 238.143 429.347 235.373L429.286 233.409C429.206 230.639 429.065 226.106 428.974 223.337L428.914 221.372C428.823 218.602 428.803 214.07 428.853 211.3V209.285C428.914 206.516 428.853 201.983 428.853 199.213L428.793 197.199C428.702 194.429 428.632 189.896 428.632 187.126V185.162C428.632 182.392 428.632 177.859 428.632 175.09V173.125C428.632 170.355 428.632 165.823 428.732 163.053V161.089C428.783 158.319 428.843 153.786 428.863 151.016V149.052C428.863 146.282 428.863 141.75 428.773 138.98L428.722 136.965C428.652 134.195 428.611 129.663 428.642 126.893V124.878C428.642 122.108 428.722 117.586 428.752 114.806V113.013C428.766 112.363 428.645 111.718 428.398 111.117C428.15 110.516 427.781 109.973 427.314 109.521C426.847 109.069 426.292 108.718 425.683 108.491C425.075 108.263 424.426 108.164 423.777 108.198L419.959 108.36C417.189 108.48 412.657 108.632 409.887 108.702L405.858 108.803C403.098 108.873 398.565 108.944 395.785 108.954H391.988C391.331 108.96 390.679 108.832 390.072 108.58C389.465 108.327 388.915 107.955 388.456 107.484C387.997 107.014 387.638 106.455 387.4 105.842C387.162 105.229 387.051 104.575 387.073 103.918L387.133 101.117C387.204 98.3476 387.133 93.815 387.063 91.045L386.952 88.0233C386.851 85.2534 386.74 80.7308 386.7 77.9508V74.7982C386.689 74.1462 386.81 73.4988 387.058 72.8955C387.305 72.2923 387.673 71.7457 388.138 71.2894C388.604 70.8331 389.158 70.4766 389.766 70.2417C390.374 70.0068 391.024 69.8983 391.676 69.9231L393.489 69.9835C396.259 70.0641 400.791 70.1749 403.561 70.2051H405.223C407.993 70.2051 412.526 70.2051 415.296 70.1246H416.958C419.728 70.044 424.26 69.8627 427.03 69.7217L428.702 69.6411C431.462 69.5001 435.995 69.5303 438.775 69.7015L440.457 69.8022C443.216 69.9735 447.739 70.0238 450.529 69.913L452.191 69.8425L462.263 69.4497L463.915 69.3893C466.685 69.2885 471.218 69.1979 473.988 69.1878H475.67C478.44 69.1878 482.972 69.2583 485.742 69.3591L487.404 69.4195C490.174 69.5202 494.707 69.6511 497.477 69.7015H499.139C501.899 69.7619 506.431 69.7015 509.211 69.5706L511.004 69.49C511.661 69.4603 512.318 69.5615 512.935 69.7877C513.553 70.0138 514.12 70.3605 514.602 70.8075C515.085 71.2545 515.474 71.793 515.747 72.3916C516.02 72.9902 516.171 73.637 516.191 74.2945V76.158C516.272 78.9279 516.262 83.4605 516.191 86.2304L516.131 87.9629C516.04 90.7328 515.98 95.2654 516.01 98.0353V99.9793C516.019 100.639 515.893 101.293 515.642 101.903C515.391 102.513 515.019 103.065 514.548 103.528C514.078 103.99 513.518 104.352 512.904 104.592C512.29 104.832 511.633 104.945 510.974 104.925L506.895 105.136C504.125 105.136 499.602 105.267 496.822 105.539L492.793 105.932C490.033 106.204 485.521 106.395 482.721 106.375L478.692 106.335Z" fill="#00619C"/>
<path d="M673.534 235.484C673.439 236.966 672.957 238.398 672.135 239.635C671.313 240.873 670.18 241.872 668.85 242.534L668.004 242.897C665.456 243.995 661.266 245.707 658.677 246.704L657.67 247.087C654.527 248.244 651.306 249.176 648.031 249.877L647.023 250.079C644.314 250.623 639.832 251.287 637.072 251.559L636.014 251.67C633.254 251.942 628.732 252.224 625.942 252.285H624.35C620.984 252.314 617.62 252.129 614.278 251.731L612.686 251.519L602.705 250.19L601.153 249.988C597.835 249.517 594.551 248.827 591.323 247.923L589.822 247.49C587.173 246.704 582.892 245.234 580.314 244.207L578.873 243.632C575.779 242.346 572.774 240.856 569.878 239.17L568.569 238.385C566.192 236.954 562.395 234.497 560.118 232.915L558.839 232.029C556.119 230.077 553.553 227.918 551.164 225.572L549.149 223.558C546.823 221.143 544.656 218.579 542.663 215.883L541.011 213.586C539.082 210.843 537.306 207.995 535.693 205.055L534.353 202.557C532.824 199.577 531.478 196.505 530.324 193.361L529.377 190.682C528.308 187.504 527.433 184.265 526.758 180.982L526.235 178.192C525.651 174.892 525.277 171.558 525.117 168.21L525.026 165.39C524.925 162.62 525.026 158.097 525.227 155.317L525.449 152.447C525.732 149.107 526.193 145.785 526.829 142.495L527.403 139.685C527.957 136.975 529.105 132.634 529.951 129.955L530.838 127.205C531.899 124.025 533.14 120.907 534.554 117.868L535.823 115.219C537.32 112.223 539.051 109.35 541.001 106.627L542.753 104.26C544.405 102.034 547.276 98.5388 549.129 96.484L551.144 94.2882C553.428 91.8378 555.889 89.5587 558.507 87.4692L560.914 85.6058C563.589 83.5843 566.384 81.7275 569.284 80.0458L571.933 78.545C574.866 76.9335 577.893 75.5006 580.998 74.2541L583.819 73.1663C586.407 72.159 590.708 70.7892 593.398 70.0942L596.298 69.3287C598.978 68.6337 603.4 67.6667 606.129 67.1933L609.151 66.6696C612.462 66.1276 615.802 65.7711 619.153 65.6019L622.175 65.4911C624.945 65.3803 629.467 65.4306 632.247 65.5918L634.1 65.7026C636.86 65.8638 641.363 66.3472 644.102 66.7098L645.946 66.9919C648.675 67.4149 653.107 68.3315 655.786 69.0064L657.579 69.4697C660.258 70.1848 664.63 71.5446 667.168 72.4914L668.76 73.0756C670.097 73.6468 671.242 74.5905 672.058 75.7941C672.874 76.9978 673.327 78.4107 673.363 79.8645V80.9221C673.302 83.692 673.363 88.2246 673.463 90.9945L673.524 92.2233C673.645 94.9933 673.786 99.5259 673.836 102.296V103.525C673.836 106.295 673.836 110.827 673.786 113.597V114.604C673.705 117.364 671.902 118.18 669.757 116.417L667.994 115.108C665.379 113.027 662.565 111.208 659.594 109.679L657.368 108.601C654.336 107.19 651.18 106.063 647.94 105.237L645.613 104.683C642.924 104.038 638.472 103.202 635.732 102.809L633.315 102.467C630 102.078 626.653 102.051 623.333 102.386L622.628 102.477C619.307 102.931 616.019 103.604 612.787 104.492L612.173 104.673C608.963 105.633 605.817 106.797 602.755 108.158L602.221 108.41C599.196 109.844 596.275 111.486 593.478 113.325L592.944 113.688C590.211 115.613 587.665 117.792 585.34 120.195L584.141 121.484C581.927 123.979 580.017 126.728 578.45 129.673L577.664 131.224C576.205 134.237 574.983 137.359 574.008 140.561L573.555 142.142C572.682 145.375 572.009 148.658 571.54 151.973L571.319 153.615C570.938 156.936 570.894 160.287 571.188 163.617L571.289 164.554C571.591 167.313 572.296 171.776 572.92 174.485L573.132 175.492C573.949 178.696 575.257 181.754 577.01 184.557L577.564 185.404C579.105 187.71 581.754 191.377 583.466 193.562L584.071 194.328C586.199 196.89 588.654 199.162 591.373 201.086L592.38 201.761C595.188 203.581 598.127 205.191 601.174 206.576L602.292 207.059C605.383 208.335 608.586 209.319 611.86 210L613.049 210.222C616.347 210.789 619.685 211.096 623.031 211.139H624.199C627.568 211.096 630.931 210.853 634.272 210.413L636.528 210.081C639.837 209.55 643.108 208.799 646.318 207.835L648.534 207.13C651.7 206.072 654.762 204.723 657.68 203.101L659.694 201.902C662.559 200.17 665.305 198.249 667.914 196.151L669.928 194.499C672.063 192.726 673.816 193.542 673.826 196.312V198.709C673.826 201.479 673.746 206.002 673.605 208.782L673.494 210.998C673.363 213.768 673.333 218.3 673.423 221.07L673.504 223.296C673.594 226.066 673.645 230.599 673.615 233.369L673.534 235.484Z" fill="#00619C"/>
<path d="M748.133 130.076C748.16 131.427 748.692 132.719 749.624 133.698C750.556 134.677 751.821 135.271 753.169 135.364L756.191 135.515C758.951 135.656 763.483 135.767 766.263 135.777H769.104C771.874 135.777 776.406 135.928 779.176 136.089L782.006 136.26C784.766 136.432 789.299 136.683 792.079 136.824L794.909 136.975L804.982 137.519L807.812 137.67C810.572 137.822 815.084 138.234 817.885 138.577L820.906 138.97C821.529 139.07 822.166 139.03 822.771 138.851C823.377 138.673 823.934 138.361 824.403 137.939C824.871 137.516 825.239 136.994 825.48 136.411C825.72 135.828 825.827 135.198 825.791 134.568V132.765C825.731 129.995 825.731 125.463 825.791 122.693V121.152C825.791 118.382 825.872 113.849 825.852 111.079V109.548C825.852 106.778 825.852 102.246 825.943 99.4757V97.9346C826.013 95.1647 825.943 90.6422 825.832 87.8622L825.761 86.3211C825.63 83.5512 825.54 79.0186 825.55 76.2486V74.6371C825.55 73.3014 826.08 72.0204 827.025 71.0759C827.969 70.1314 829.25 69.6008 830.586 69.6008H831.795C834.565 69.6008 839.097 69.6008 841.867 69.6008H842.985C845.755 69.6008 850.288 69.6008 853.058 69.6008H854.166C856.935 69.6008 861.468 69.6613 864.238 69.7217H865.437C866.763 69.7613 868.021 70.3231 868.936 71.2851C869.851 72.2471 870.349 73.5314 870.322 74.8586L870.261 76.9739C870.181 79.7438 870.09 84.2764 870.07 87.0463V89.0608C870.07 91.8307 870.07 96.3633 870.07 99.1332V101.148C870.07 103.918 870.07 108.45 870.201 111.22L870.261 113.235C870.342 116.005 870.483 120.537 870.574 123.307L870.644 125.322C870.725 128.081 870.755 132.614 870.644 135.394V137.409C870.644 140.178 870.644 144.711 870.644 147.481L870.714 149.495C870.805 152.265 870.866 156.788 870.866 159.568V161.582C870.866 164.352 870.866 168.885 870.866 171.655V173.669C870.866 176.439 870.866 180.962 870.765 183.742V185.756C870.715 188.526 870.654 193.059 870.634 195.829V197.843C870.634 200.613 870.634 205.146 870.725 207.916L870.775 209.93C870.845 212.7 870.886 217.233 870.856 220.003V222.017C870.856 224.787 870.795 229.32 870.785 232.09V234.104C870.785 236.874 870.785 241.407 870.785 244.176V246.191C870.785 248.961 870.785 253.494 870.735 256.263V258.439C870.76 259.062 870.636 259.681 870.373 260.246C870.11 260.811 869.715 261.305 869.222 261.685C868.729 262.066 868.151 262.323 867.538 262.435C866.925 262.547 866.294 262.51 865.698 262.327L864.308 261.995C861.609 261.36 857.177 260.403 854.468 259.849L853.199 259.597C850.479 259.043 846.007 258.318 843.257 257.986L841.968 257.825C839.218 257.482 834.726 256.888 831.986 256.505L830.566 256.314C829.211 256.094 827.981 255.393 827.101 254.341C826.221 253.289 825.749 251.954 825.771 250.583L825.832 249.031C825.932 246.261 826.063 241.729 826.114 238.959V237.549C826.164 234.779 826.114 230.246 826.114 227.476V226.066C826.043 223.296 825.872 218.764 825.741 215.994L825.681 214.584C825.55 211.814 825.59 207.291 825.781 204.511L825.872 203.081C826.063 200.311 826.124 195.788 826.023 193.008L825.963 191.598C825.862 188.828 825.721 184.306 825.65 181.526V180.408C825.582 179.029 825.03 177.718 824.09 176.706C823.15 175.695 821.884 175.047 820.513 174.878L817.935 174.616C815.185 174.344 810.683 173.831 807.933 173.478L805.103 173.105C802.353 172.753 797.85 172.229 795.091 171.947L792.26 171.655C789.5 171.363 784.978 171.071 782.188 171L779.327 170.92C776.567 170.849 772.035 170.708 769.255 170.607L766.404 170.507C763.644 170.406 759.122 170.144 756.332 169.912L753.552 169.691C752.915 169.625 752.271 169.698 751.664 169.903C751.057 170.108 750.501 170.44 750.034 170.879C749.567 171.317 749.2 171.851 748.957 172.443C748.714 173.036 748.601 173.674 748.626 174.314V177.255C748.677 180.025 748.626 184.558 748.415 187.328L748.244 190.349C748.078 193.705 748.095 197.068 748.294 200.422L748.506 203.444C748.708 206.797 748.728 210.16 748.566 213.516L748.385 216.538C748.223 219.308 748.113 223.83 748.153 226.61V229.632C748.153 232.402 748.213 236.934 748.153 239.704V242.494C748.152 243.147 748.02 243.792 747.764 244.392C747.508 244.992 747.134 245.534 746.664 245.986C746.194 246.439 745.638 246.792 745.028 247.024C744.419 247.256 743.769 247.364 743.117 247.339H742.251C739.481 247.228 734.948 247.148 732.178 247.148H731.05C728.28 247.148 723.747 247.098 720.978 247.037H719.87C717.1 246.977 712.567 246.795 709.797 246.634L708.629 246.564C707.274 246.463 706.007 245.86 705.075 244.872C704.143 243.884 703.614 242.583 703.593 241.225V239.442C703.593 236.673 703.593 232.14 703.512 229.37V227.617C703.512 224.847 703.441 220.325 703.512 217.545V215.792C703.512 213.022 703.663 208.49 703.804 205.72L703.895 203.957C704.036 201.187 704.066 196.665 703.975 193.885L703.905 192.122C703.804 189.352 703.733 184.82 703.744 182.05V180.307C703.744 177.537 703.673 173.005 703.572 170.235L703.512 168.482C703.411 165.712 703.441 161.18 703.582 158.41L703.663 156.647C703.804 153.887 703.804 149.354 703.663 146.574L703.572 144.822C703.431 142.052 703.451 137.529 703.572 134.749L703.673 132.987C703.834 130.227 703.885 125.694 703.784 122.914L703.723 121.162C703.623 118.392 703.532 113.859 703.532 111.089V109.347C703.532 106.577 703.532 102.054 703.441 99.2743V97.5217C703.441 94.7517 703.512 90.2292 703.683 87.4492L703.794 85.6865C703.975 82.9267 704.046 78.4041 703.955 75.6141L703.905 73.9421C703.883 73.2851 703.993 72.6304 704.227 72.0163C704.462 71.4021 704.817 70.8409 705.27 70.3655C705.724 69.89 706.268 69.5098 706.871 69.247C707.474 68.9843 708.122 68.8443 708.78 68.8353H709.787C712.557 68.8353 717.09 68.785 719.859 68.8353H720.978C723.747 68.8353 728.28 68.8353 731.05 68.8353H732.158C734.928 68.8353 739.46 68.8353 742.23 68.7145H743.701C744.353 68.6951 745.001 68.8088 745.608 69.0487C746.214 69.2886 746.765 69.6496 747.227 70.1097C747.689 70.5698 748.052 71.1192 748.294 71.7245C748.537 72.3297 748.653 72.9781 748.636 73.6298L748.566 76.9638C748.506 79.7337 748.365 84.2563 748.244 87.0362L748.113 90.058C747.992 92.8279 747.992 97.3504 748.113 100.13L748.244 103.152C748.354 105.912 748.395 110.445 748.324 113.225L748.254 116.246C748.183 119.016 748.143 123.549 748.163 126.319L748.133 130.076Z" fill="#00619C"/>
<path d="M153.535 463.998C153.542 460.762 152.623 457.592 150.886 454.862L149.556 452.978C147.944 450.722 145.235 447.086 143.513 444.92L142.123 443.148C140.41 440.972 137.721 437.326 136.15 435.09L134.87 433.246C133.289 430.97 130.69 427.263 129.089 424.997L127.799 423.174C126.198 420.908 123.579 417.211 121.968 414.955L120.678 413.132C119.067 410.876 116.599 407.088 115.189 404.691L114.071 402.707C112.651 400.32 110.183 396.532 108.561 394.276L107.262 392.453C105.65 390.197 103.112 386.41 101.621 384.113L100.423 382.219C98.9319 379.883 96.4641 376.085 94.9331 373.769L93.6841 371.956C92.1531 369.639 89.6551 365.842 88.1845 363.515L87.1773 361.933C85.6866 359.607 86.724 357.834 89.494 358.015L92.3243 358.197C95.0842 358.368 99.6067 358.69 102.397 358.902L105.56 359.153C108.319 359.365 112.842 359.697 115.632 359.879L118.805 360.1C121.565 360.282 126.087 360.523 128.877 360.634L132.131 360.765C133.667 360.913 135.155 361.382 136.498 362.142C137.841 362.902 139.009 363.936 139.927 365.177L140.863 366.607C142.384 368.924 144.892 372.721 146.353 375.048L147.229 376.408C148.73 378.744 151.147 382.572 152.608 384.929L153.454 386.309C154.915 388.666 157.342 392.483 158.863 394.8L159.759 396.16C161.28 398.476 163.788 402.203 165.34 404.54L166.246 405.88C167.797 408.166 170.406 411.923 172.048 414.109L173.055 415.448C174.697 417.674 177.265 417.604 178.766 415.277L179.622 413.948C181.133 411.621 183.651 407.904 185.303 405.628L186.189 404.389C187.811 402.143 190.339 398.345 191.82 396.039L192.636 394.739C194.116 392.393 196.594 388.595 198.135 386.299L198.981 385.03C200.533 382.733 203.01 378.986 204.592 376.669L205.438 375.39C206.979 373.084 209.517 369.347 211.089 367.05L212.025 365.701C212.973 364.483 214.164 363.475 215.521 362.742C216.879 362.009 218.374 361.565 219.912 361.44L223.155 361.369C225.925 361.309 230.458 361.118 233.228 360.956L236.391 360.765C239.15 360.594 243.673 360.372 246.463 360.282L249.626 360.161L259.698 359.778L263.052 359.637C265.822 359.526 266.87 361.349 265.379 363.666L264.13 365.61C262.639 367.937 260.101 371.714 258.57 374L257.392 375.723C255.82 378.009 253.201 381.696 251.56 383.932L250.321 385.614C248.689 387.85 246.03 391.526 244.428 393.783L243.23 395.485C241.628 397.741 239.1 401.528 237.619 403.845L236.501 405.608C235.021 407.944 232.533 411.742 230.992 414.038L229.823 415.771C228.272 418.067 225.623 421.744 223.931 423.929L222.662 425.591C220.97 427.787 218.24 431.403 216.618 433.649L215.379 435.311C213.728 437.537 211.099 441.224 209.527 443.51L208.349 445.223C206.788 447.509 204.249 451.266 202.708 453.573L201.61 455.214C199.9 458.018 198.831 461.165 198.478 464.431L198.397 465.619C198.216 468.379 198.145 472.912 198.256 475.692L198.307 476.981C198.407 479.751 198.579 484.284 198.669 487.053L198.72 488.333C198.81 491.103 198.881 495.635 198.881 498.405V499.684C198.881 502.454 198.78 506.977 198.669 509.757L198.619 511.046C198.508 513.806 198.357 518.338 198.286 521.118V522.398C198.216 525.168 198.286 529.69 198.387 532.47L198.448 533.88C198.491 535.206 198.01 536.496 197.109 537.469C196.207 538.442 194.958 539.02 193.633 539.078H192.374C189.604 539.158 185.081 539.148 182.301 539.078H181.183C178.414 538.977 173.881 538.937 171.111 538.997H169.993C167.223 538.997 162.701 538.997 159.921 538.796H159.135C157.757 538.679 156.465 538.083 155.482 537.111C154.499 536.139 153.888 534.853 153.756 533.477L153.686 532.47C153.488 529.115 153.488 525.752 153.686 522.398L153.776 521.068C153.958 518.308 154.078 513.776 154.038 510.996V509.696C153.988 506.926 153.988 502.394 154.038 499.624V498.314C154.038 495.545 154.038 491.012 154.038 488.242V486.943C153.968 484.173 153.827 479.64 153.716 476.87V475.551C153.605 472.791 153.635 468.258 153.776 465.478L153.535 463.998Z" fill="#00619C"/>
<path d="M398.316 380.9C398.303 382.268 397.78 383.582 396.848 384.585C395.916 385.587 394.644 386.206 393.28 386.319L390.5 386.54C387.74 386.752 383.238 387.225 380.488 387.547L377.567 387.93C374.817 388.283 370.315 388.756 367.555 388.937L364.624 389.169C361.864 389.381 357.351 389.763 354.551 390.015L351.63 390.287L341.558 391.184L338.879 391.415C337.501 391.574 336.222 392.207 335.26 393.204C334.297 394.202 333.711 395.503 333.601 396.885L333.51 398.607C333.369 401.367 333.319 405.899 333.409 408.679L333.47 410.694C333.55 413.454 333.601 417.986 333.56 420.766V422.872C333.542 423.516 333.661 424.157 333.908 424.752C334.155 425.347 334.525 425.884 334.994 426.326C335.463 426.768 336.02 427.106 336.629 427.318C337.237 427.53 337.884 427.611 338.526 427.555L340.923 427.384C343.693 427.193 348.216 426.931 350.996 426.8L353.272 426.699C356.042 426.568 360.554 426.195 363.345 425.873L365.621 425.601C368.371 425.279 372.883 424.846 375.693 424.644L377.97 424.473L388.042 423.758L390.349 423.597C390.996 423.544 391.648 423.626 392.262 423.837C392.876 424.048 393.44 424.385 393.918 424.825C394.396 425.265 394.777 425.799 395.038 426.394C395.3 426.988 395.435 427.631 395.435 428.28V430.587C395.435 433.357 395.496 437.89 395.506 440.659V442.916C395.506 445.686 395.506 450.218 395.506 452.988V455.315C395.479 456.665 394.937 457.954 393.992 458.918C393.046 459.882 391.769 460.449 390.419 460.502L388.042 460.593C385.272 460.673 380.74 460.845 377.97 460.976L375.703 461.076C372.934 461.207 368.411 461.439 365.631 461.59L363.375 461.711C360.605 461.862 356.082 462.164 353.302 462.396L351.036 462.577C348.276 462.809 343.764 463.161 340.964 463.373L338.949 463.524C337.598 463.664 336.343 464.29 335.417 465.284C334.491 466.279 333.957 467.575 333.913 468.933V472.055C333.913 474.825 333.913 479.358 333.983 482.128L334.084 485.462C334.155 488.232 334.205 492.764 334.175 495.534V498.556C334.162 499.207 334.282 499.855 334.529 500.457C334.776 501.06 335.145 501.606 335.611 502.061C336.077 502.516 336.632 502.871 337.241 503.103C337.85 503.335 338.5 503.44 339.151 503.411L341.719 503.32C344.489 503.219 349.011 503.109 351.791 503.078H354.692C357.462 503.078 361.995 502.978 364.765 502.917L367.666 502.857C370.426 502.796 374.958 502.625 377.738 502.484L380.629 502.323C383.389 502.182 387.921 502.021 390.701 501.981H393.804C394.461 501.973 395.114 502.095 395.724 502.341C396.334 502.587 396.889 502.951 397.358 503.413C397.826 503.875 398.198 504.425 398.453 505.031C398.707 505.638 398.839 506.289 398.84 506.946V509.303C398.84 512.073 398.84 516.606 398.84 519.376V521.511C398.84 524.281 398.84 528.813 398.84 531.583V533.84C398.831 534.497 398.691 535.146 398.428 535.748C398.165 536.351 397.785 536.895 397.31 537.349C396.834 537.803 396.273 538.158 395.659 538.392C395.045 538.627 394.39 538.736 393.733 538.715L391.507 538.634C388.737 538.543 384.205 538.433 381.435 538.382H379.34C376.57 538.382 372.037 538.382 369.267 538.503L367.162 538.584C364.402 538.695 359.87 538.826 357.09 538.876H354.984C352.215 538.926 347.692 538.876 344.912 538.765L342.807 538.674C340.037 538.564 335.504 538.433 332.734 538.382H330.639C327.869 538.382 323.337 538.382 320.567 538.382L318.462 538.433C315.692 538.493 311.169 538.654 308.389 538.775L306.274 538.876C303.514 538.997 298.982 538.977 296.202 538.876L294.379 538.775C293.016 538.673 291.738 538.076 290.786 537.096C289.834 536.116 289.274 534.822 289.211 533.457V531.795C289.141 529.025 289.01 524.503 288.919 521.723L288.849 519.708C288.758 516.938 288.688 512.406 288.698 509.636V507.631C288.698 504.861 288.798 500.329 288.909 497.559L288.98 495.544C289.091 492.784 289.232 488.252 289.292 485.472V483.457C289.362 480.697 289.292 476.165 289.181 473.385L289.091 471.37C288.96 468.6 288.798 464.068 288.738 461.298L288.688 459.283C288.617 456.524 288.688 451.991 288.688 449.211L288.758 447.247C288.849 444.477 288.879 439.944 288.839 437.174V435.16C288.788 432.39 288.899 427.867 289.08 425.087L289.211 423.073C289.389 419.717 289.369 416.354 289.151 413.001L289 410.986C288.782 407.633 288.762 404.269 288.939 400.914L289.06 398.899C289.242 396.139 289.352 391.617 289.312 388.827V386.863C289.312 384.093 289.312 379.56 289.312 376.79V374.826C289.312 372.056 289.312 367.523 289.312 364.754V362.83C289.304 361.464 289.797 360.143 290.697 359.117C291.597 358.09 292.843 357.43 294.197 357.26L296.302 357.028C299.052 356.736 303.565 356.303 306.375 356.071L308.51 355.9C311.27 355.668 315.793 355.376 318.583 355.255L320.728 355.154C323.498 355.034 328.02 354.741 330.8 354.51L332.644 354.832C335.404 354.6 339.916 354.177 342.716 353.885L344.852 353.664C347.601 353.372 352.114 352.949 354.874 352.717L357.009 352.536C359.769 352.304 364.291 352.012 367.081 351.891L369.237 351.79C372.007 351.659 376.519 351.256 379.309 350.894L381.445 350.612C384.184 350.249 388.687 349.725 391.447 349.453L393.512 349.252C394.155 349.181 394.806 349.244 395.423 349.438C396.041 349.632 396.611 349.952 397.098 350.378C397.585 350.805 397.978 351.328 398.252 351.914C398.526 352.501 398.675 353.138 398.689 353.785L398.769 356.142C398.85 358.911 398.769 363.444 398.689 366.214L398.578 368.641C398.447 371.401 398.356 375.934 398.377 378.714L398.316 380.9Z" fill="#00619C"/>
<path d="M550.488 503.441C549.952 502.094 549.034 500.933 547.848 500.099C546.662 499.265 545.259 498.796 543.81 498.747H541.553C538.783 498.747 534.251 498.969 531.481 499.16L529.336 499.311C526.576 499.503 522.043 499.704 519.263 499.755H517.128C514.368 499.815 509.835 499.936 507.055 500.037L504.92 500.107C502.15 500.208 497.627 500.389 494.847 500.51L492.712 500.611C489.942 500.732 485.41 500.772 482.64 500.701H480.293C478.841 500.732 477.43 501.184 476.232 502.004C475.033 502.823 474.1 503.973 473.544 505.315L472.295 508.749C471.359 511.348 469.727 515.578 468.669 518.137L467.36 521.35C466.352 523.908 464.63 528.119 463.633 530.707L462.404 533.88C461.812 535.212 460.854 536.348 459.642 537.156C458.429 537.963 457.012 538.41 455.555 538.443H454.054C451.294 538.362 446.762 538.443 443.982 538.544L442.42 538.614C439.66 538.745 435.128 538.846 432.348 538.836H430.797H420.724H419.133C416.363 538.836 414.923 536.68 415.94 534.102L416.625 532.359C417.632 529.781 419.324 525.57 420.362 523.002L421.037 521.3C422.044 518.731 423.786 514.541 424.844 511.983L425.549 510.28C426.607 507.722 428.379 503.552 429.487 501.014L430.223 499.332C431.341 496.793 433.103 492.623 434.151 490.055L434.846 488.363C435.853 485.794 437.586 481.594 438.613 479.015L439.288 477.313C440.295 474.745 441.907 470.504 442.843 467.895L443.458 466.163C444.395 463.554 445.915 459.284 446.842 456.675L447.457 454.942C448.383 452.334 450.005 448.103 451.063 445.545L451.768 443.842C452.835 441.284 454.447 437.054 455.373 434.445L455.978 432.712C456.894 430.094 458.466 425.843 459.473 423.264L460.128 421.552C461.135 418.964 462.777 414.743 463.774 412.165L464.439 410.452C465.446 407.864 467.108 403.653 468.155 401.085L468.85 399.393C469.858 396.824 471.57 392.614 472.587 390.035L473.262 388.333C474.269 385.755 475.861 381.514 476.788 378.895L477.402 377.163C478.329 374.554 479.93 370.314 480.947 367.735L481.713 365.912C482.72 363.333 484.392 359.113 485.399 356.535L486.064 354.822C487.072 352.234 488.703 348.013 489.69 345.425L490.416 343.551C491.023 342.186 491.968 340.998 493.161 340.097C494.353 339.197 495.755 338.614 497.235 338.404L501.012 338.062C503.762 337.82 508.284 337.477 511.084 337.316L514.72 337.105C517.49 336.934 522.013 336.621 524.793 336.4L528.157 336.138C529.611 336.088 531.049 336.457 532.3 337.202C533.55 337.947 534.559 339.035 535.208 340.338L535.893 341.889C537.001 344.427 538.794 348.597 539.861 351.146L540.637 352.989C541.704 355.547 543.326 359.778 544.233 362.397L544.897 364.29C545.814 366.899 547.345 371.17 548.312 373.758L549.017 375.632C550.024 378.231 551.646 382.441 552.714 384.999L553.489 386.842C554.557 389.391 556.35 393.561 557.458 396.099L558.264 397.932C559.382 400.47 560.973 404.701 561.799 407.35L562.393 409.274C563.219 411.913 564.78 416.163 565.858 418.722L566.634 420.565C567.712 423.113 569.464 427.293 570.522 429.852L571.297 431.705C572.305 434.264 574.017 438.474 574.984 441.073L575.679 442.946C576.686 445.545 578.147 449.815 579.013 452.444L579.637 454.358C580.503 456.987 581.944 461.288 582.83 463.907L583.485 465.8C584.381 468.419 585.983 472.66 587.051 475.208L587.826 477.061C588.894 479.62 590.596 483.82 591.603 486.399L592.329 488.262C593.336 490.84 594.857 495.111 595.703 497.75L596.317 499.664C597.173 502.293 598.664 506.574 599.631 509.172L600.336 511.036C601.343 513.634 602.723 517.935 603.469 520.605L604.023 522.559C604.961 525.777 606.067 528.944 607.336 532.047L608.253 534.243C609.321 536.791 607.931 538.775 605.171 538.634L603.237 538.544C600.477 538.413 595.945 538.332 593.165 538.382H591.613C588.843 538.382 584.311 538.433 581.541 538.382H579.99C577.22 538.382 572.687 538.382 569.917 538.382H568.407C566.943 538.342 565.518 537.896 564.293 537.094C563.068 536.292 562.089 535.165 561.467 533.84L561.275 533.376C560.268 530.818 558.576 526.598 557.609 523.999L557.428 523.505C556.42 520.917 554.97 516.636 554.124 513.997L553.963 513.493C553.117 510.854 551.686 506.554 550.78 503.935L550.488 503.441ZM531.672 462.829C532.27 462.872 532.869 462.76 533.41 462.503C533.952 462.247 534.419 461.856 534.765 461.367C535.111 460.878 535.326 460.308 535.387 459.712C535.449 459.116 535.356 458.514 535.117 457.964L534.523 456.191C533.646 453.562 532.075 449.312 531.038 446.743L530.393 445.172C529.386 442.604 527.744 438.363 526.838 435.744L526.284 434.153C525.367 431.534 523.846 427.273 522.879 424.675L522.295 423.083C521.338 420.484 519.736 416.244 518.759 413.655L518.155 412.084C517.148 409.495 515.677 405.215 514.831 402.576L514.217 400.652C513.371 398.013 511.961 398.003 511.074 400.652L510.319 402.918C509.432 405.547 507.932 409.818 506.965 412.416L506.249 414.36C505.242 416.959 503.762 421.23 502.865 423.849L502.19 425.863C501.294 428.482 499.753 432.753 498.776 435.341L498.04 437.275C497.033 439.874 495.603 444.165 494.797 446.814L494.203 448.828C493.397 451.487 491.977 455.788 491.04 458.397L490.385 460.24C489.449 462.849 490.939 464.874 493.709 464.733L495.532 464.642C498.302 464.511 502.825 464.259 505.605 464.088L507.539 463.967C510.299 463.806 514.821 463.554 517.611 463.413L519.535 463.313C522.305 463.172 526.827 463.02 529.607 462.97L531.672 462.829Z" fill="#00619C"/>
<path d="M694.483 327.828C697.253 327.929 701.765 328.211 704.555 328.473L708.01 328.795C710.76 329.047 715.232 329.732 717.942 330.316L721.356 331.051C724.607 331.826 727.769 332.933 730.794 334.355L733.947 335.926C736.915 337.47 739.743 339.269 742.397 341.305L745.147 343.501C747.728 345.631 750.09 348.013 752.198 350.612L753.779 352.626C755.765 355.308 757.425 358.216 758.725 361.289L759.652 363.646C760.659 366.224 762.119 370.505 762.875 373.174L763.54 375.571C764.39 378.808 764.946 382.116 765.201 385.452L765.353 387.961C765.514 390.72 765.504 395.253 765.353 398.033L765.272 399.252C765.02 402.588 764.487 405.896 763.681 409.143L763.378 410.291C762.487 413.523 761.421 416.704 760.185 419.82L759.722 420.948C758.381 424.003 756.691 426.893 754.686 429.56L753.91 430.567C751.782 433.156 749.422 435.547 746.86 437.708L746.537 437.97C743.913 440.054 741.162 441.972 738.298 443.712L737.935 443.923C735.031 445.566 731.999 446.974 728.87 448.133L728.649 448.204C728.061 448.365 727.522 448.668 727.08 449.086C726.638 449.505 726.305 450.026 726.112 450.603C725.919 451.181 725.871 451.797 725.973 452.397C726.074 452.998 726.322 453.564 726.694 454.046L727.621 455.416C729.162 457.712 731.65 461.459 733.091 463.867L734.098 465.408C735.558 467.754 738.006 471.572 739.527 473.889L740.534 475.41C742.045 477.726 744.563 481.513 746.084 483.81L747.091 485.321C748.632 487.627 751.201 491.364 752.802 493.62L753.86 495.101C755.472 497.367 758.1 501.054 759.712 503.3L760.78 504.791C762.391 507.037 764.93 510.834 766.41 513.131L767.417 514.672C768.898 517.009 771.446 520.715 773.058 523.012L774.065 524.482C775.687 526.739 778.235 530.526 779.746 532.802L780.935 534.646C782.446 536.972 781.408 538.916 778.638 538.977H777.379C774.609 539.037 770.077 539.037 767.307 538.977H766.45C763.681 538.916 759.148 538.856 756.378 538.836H755.532C752.762 538.836 748.229 538.836 745.459 538.936H744.603C741.833 539.017 737.301 539.047 734.531 539.007H733.524C732.004 538.897 730.529 538.444 729.21 537.681C727.891 536.919 726.763 535.867 725.909 534.605L724.458 532.339C723.038 529.952 720.701 526.074 719.261 523.707L717.962 521.562C716.521 519.194 714.195 515.307 712.795 512.919L711.515 510.754C710.105 508.367 707.859 504.428 706.479 502.011L705.321 499.805C703.981 497.388 701.725 493.449 700.285 491.062L699.015 488.896C697.615 486.509 695.208 482.662 693.677 480.365L692.277 478.26C690.736 475.953 688.248 472.217 686.767 469.829L685.418 467.714C683.927 465.377 681.56 461.52 680.15 459.132L678.74 456.735C677.34 454.348 676.111 454.66 676.02 457.43L675.929 459.918C675.839 462.688 675.819 467.221 675.929 469.991L675.98 472.207C676.05 474.976 676.201 479.499 676.322 482.279L676.423 484.505C676.544 487.265 676.503 491.797 676.332 494.577L676.191 496.813C676.02 499.583 675.95 504.106 676.05 506.886L676.131 509.102C676.232 511.872 676.383 516.404 676.473 519.174L676.544 521.4C676.624 524.17 676.675 528.693 676.655 531.473V533.961C676.647 534.613 676.51 535.257 676.252 535.856C675.995 536.455 675.621 536.997 675.153 537.451C674.685 537.905 674.131 538.262 673.525 538.501C672.918 538.741 672.27 538.858 671.618 538.846H670.218L660.146 538.564H659.028C656.258 538.493 651.725 538.564 648.955 538.685L647.837 538.745C645.067 538.876 640.535 539.017 637.765 539.047H636.294C635.64 539.06 634.989 538.939 634.383 538.693C633.776 538.447 633.226 538.08 632.766 537.615C632.305 537.149 631.944 536.595 631.704 535.986C631.464 535.377 631.35 534.726 631.369 534.071V531.473C631.429 528.703 631.439 524.17 631.369 521.4V519.134C631.369 516.364 631.429 511.831 631.601 509.062L631.742 506.765C631.934 503.41 631.934 500.047 631.742 496.693L631.57 494.386C631.353 491.033 631.332 487.669 631.51 484.314L631.651 482.017C631.822 479.247 631.933 474.725 631.893 471.945V469.668C631.893 466.898 631.842 462.366 631.893 459.596V457.319C631.893 454.549 631.893 450.017 631.893 447.247L631.842 444.981C631.842 442.211 631.661 437.678 631.55 434.908L631.47 432.632C631.369 429.862 631.268 425.329 631.248 422.559V420.293C631.248 417.523 631.248 412.991 631.389 410.221L631.47 407.944C631.57 405.184 631.651 400.652 631.651 397.872V395.595C631.651 392.826 631.651 388.293 631.57 385.523V383.247C631.57 380.487 631.51 375.954 631.57 373.174V370.908C631.57 368.138 631.721 363.605 631.852 360.835L631.963 358.559C632.094 355.789 632.134 351.257 632.034 348.487L631.953 346.22C631.862 343.45 631.792 338.918 631.792 336.148V333.952C631.819 332.59 632.348 331.285 633.277 330.289C634.206 329.293 635.471 328.675 636.828 328.553L638.027 328.463C640.797 328.261 645.319 328.15 648.099 328.211H649.378C652.148 328.281 656.671 328.211 659.451 327.959L660.73 327.868C663.49 327.667 668.012 327.616 670.803 327.747L672.082 327.808C674.852 327.949 679.374 327.959 682.154 327.808L683.423 327.747C686.193 327.637 690.716 327.616 693.496 327.747L694.483 327.828ZM676.262 415.74C676.24 416.398 676.35 417.053 676.584 417.668C676.819 418.282 677.173 418.844 677.627 419.321C678.081 419.797 678.625 420.178 679.227 420.442C679.83 420.706 680.479 420.847 681.137 420.857H681.409C684.758 420.861 688.103 420.632 691.421 420.172L695.772 419.507C699.035 418.907 702.185 417.803 705.109 416.234L708.735 414.159C711.508 412.403 713.862 410.061 715.635 407.3L715.988 406.685C717.567 403.768 718.666 400.615 719.241 397.348L719.342 396.643C719.734 393.329 719.775 389.983 719.462 386.661L719.251 384.919C718.731 381.684 717.473 378.613 715.575 375.944L714.497 374.564C712.376 372.039 709.778 369.958 706.852 368.44L704.253 367.211C701.207 365.877 697.984 364.988 694.684 364.572L691.743 364.29C688.983 364.018 684.461 363.777 681.671 363.746H680.996C680.345 363.733 679.698 363.854 679.096 364.101C678.493 364.348 677.948 364.716 677.494 365.183C677.04 365.65 676.686 366.204 676.455 366.813C676.224 367.422 676.12 368.072 676.151 368.722L676.201 370.253C676.312 373.023 676.393 377.556 676.383 380.326V381.585C676.383 384.355 676.383 388.887 676.383 391.657V392.916C676.383 395.686 676.383 400.219 676.383 402.989V404.258C676.383 407.028 676.383 411.56 676.292 414.33L676.262 415.74Z" fill="#00619C"/>
<path d="M142.256 71.3759C141.249 76.0394 140.775 78.9806 139.939 81.821C139.224 84.5204 138.211 87.1318 136.918 89.607C132.889 96.7685 127.379 98.1686 120.721 93.4245C118.115 91.4887 115.923 89.0501 114.275 86.2529C107.285 74.5991 104.273 61.5754 102.409 48.32C101.402 41.1887 101.211 33.9265 100.828 26.7146C100.677 23.9145 100.727 20.9431 103.981 19.5531C106.519 18.4653 110.87 19.6337 112.623 22.5749C114.426 25.8244 115.865 29.2632 116.914 32.8286C119.351 40.393 121.477 48.0682 123.864 55.6628C124.808 58.0343 125.884 60.3512 127.087 62.6028C128.628 59.2486 129.645 57.0629 130.643 54.8571C132.748 50.1633 134.48 45.2782 137.008 40.8261C140.896 33.9467 149.538 34.0172 153.336 40.9772C155.289 44.7092 156.732 48.6864 157.627 52.8023C158.946 58.463 161.656 63.197 165.685 68.3844C166.633 66.7311 167.474 65.0186 168.203 63.2575C173.132 48.3594 176.64 33.0278 178.678 17.4681C179.13 14.6958 179.804 11.9641 180.693 9.29938C181.7 6.03591 183.513 4.35381 187.421 4.74663C191.329 5.13946 192.82 7.34533 192.83 10.6995C192.88 24.2973 192.246 37.8044 187.582 50.818C184.56 59.4098 181.871 68.1527 178.759 76.7243C177.644 79.5444 176.143 82.1955 174.297 84.601C170.419 89.8991 165.493 91.2891 159.571 88.63C152.339 85.2759 145.53 81.2267 142.256 71.3759Z" fill="#E44435"/>
<path d="M231.758 25.6165C230.751 35.3364 229.814 45.0664 228.736 54.8266C227.659 64.345 226.42 73.8534 225.241 83.3618C224.637 88.1563 222.965 92.5479 219.258 95.7207C217.838 96.9495 215.088 98.2287 213.819 97.6244C212.869 97.0569 212.053 96.2888 211.431 95.3737C210.808 94.4586 210.392 93.4186 210.213 92.3263C207.634 69.2705 207.312 46.2247 211.22 23.2495C211.966 18.878 212.348 14.4461 213.104 10.0747C214.161 3.96072 217.546 0.838258 222.642 1.00949C226.349 1.12029 231.285 6.95223 231.476 11.5755C231.577 13.9123 231.577 16.2625 231.476 18.6262C231.385 20.963 231.113 23.2897 230.912 25.6165H231.758Z" fill="#E44435"/>
<path d="M289.013 53.9102C291.883 44.3213 295.127 34.7726 297.514 25.103C299.357 17.6192 303.668 14.0233 311.313 13.3787C315.644 18.1933 317.88 23.3504 315.594 29.9781C313.68 35.5079 312.078 41.1484 310.558 46.8092C307.304 59.2587 304.222 71.7385 301.059 84.2082C300.925 84.6575 300.821 85.1151 300.747 85.578C300.455 88.4789 302.187 92.3668 298.793 93.918C294.611 95.8944 290.133 97.1704 285.538 97.6952C282.002 98.0477 278.92 95.6807 277.228 92.1956C276.1 89.8789 274.931 87.5925 273.763 85.296C272.595 82.9995 271.416 80.7332 269.603 77.238C268.545 80.985 267.85 83.7448 266.974 86.4442C265.675 90.4732 260.679 94.5022 256.992 94.7339C251.372 95.0662 247.494 91.8431 247.071 86.3737C246.97 84.9631 247.072 83.5452 247.373 82.1634C251.342 63.8853 255.334 45.6072 259.349 27.329C259.802 25.3146 260.689 23.0885 260.356 21.1244C259.551 15.9875 262.552 12.6535 265.393 9.3598C269.14 5.05887 273.007 5.77401 274.72 11.193C278.588 23.4411 282.133 35.8 285.799 48.1186C286.384 50.1331 286.938 52.077 287.502 54.0512L289.013 53.9102Z" fill="#E44435"/>
<path d="M403.937 30.0078V43.8071C407.775 43.233 411.159 42.3668 414.554 42.2962C420.833 42.1147 427.118 42.2761 433.379 42.7797C436.401 43.0416 439.362 44.633 439.594 48.3699C439.795 51.5226 437.579 53.8292 433.55 55.0681C432.654 55.3401 431.737 55.5415 430.831 55.7732C425.845 57.0524 420.899 58.4827 415.873 59.5705C410.847 60.6583 405.801 61.3936 400.211 62.3706C397.572 72.01 394.842 81.6493 392.354 91.3491C391.478 94.7535 389.886 97.2918 386.683 98.8127C382.886 100.626 380.791 100.042 378.263 96.7479C375.352 92.9707 375.654 88.7403 376.762 84.6609C378.545 78.1239 380.882 71.738 382.805 65.2513C385.515 56.307 388.275 47.3728 390.652 38.3478C391.81 33.9563 393.23 29.5143 390.007 24.9112C389 23.5313 390.571 20.1369 391.407 17.8605C392.022 16.1582 393.502 14.8387 394.328 13.1466C395.638 10.5177 397.823 9.75216 400.13 10.9407C402.829 12.3408 404.975 11.2026 407.463 10.6285C421.806 7.31463 436.149 3.97058 450.583 1.13015C454.813 0.304208 459.487 0.122904 463.445 3.14464C465.953 5.00804 468.411 6.79086 467.767 10.4774C467.122 14.1639 466.175 17.5281 462.267 18.7871C459.18 19.8503 456.019 20.6819 452.809 21.275C438.053 23.7629 423.277 26.0897 408.49 28.5272C406.939 28.9118 405.418 29.4066 403.937 30.0078Z" fill="#E44435"/>
<path d="M520.626 57.5464C524.715 58.3321 528.835 58.9465 532.864 59.9436C541.929 62.1999 550.994 64.3957 559.959 67.0951C562.788 67.938 565.412 69.3576 567.665 71.2645C569.919 73.1713 571.753 75.5242 573.053 78.1748C575.067 82.0224 574.624 83.7448 571.391 86.6558C570.746 87.2299 569.487 87.9249 569.568 88.358C570.787 94.8144 567.13 93.0518 563.383 92.4978C547.187 90.1005 530.96 87.945 514.723 85.86C511.772 85.4773 508.74 85.7996 505.336 85.7996C505.288 87.9826 505.093 90.1599 504.752 92.3165C504.374 94.052 503.532 95.6523 502.315 96.9458C501.098 98.2392 499.551 99.1772 497.842 99.6593C494.286 100.667 491.597 98.3902 489.562 95.6303C488.334 94.2081 487.391 92.5634 486.782 90.7855C485.664 86.2227 482.592 83.8153 478.634 81.9016C476.358 80.7009 474.24 79.2224 472.328 77.4999C467.484 73.3904 466.688 69.442 469.005 63.2273C469.81 61.0516 470.284 58.7551 471.019 56.0154C472.107 55.5218 473.557 54.8571 475.048 54.2124C476.539 53.5678 478.07 52.9534 480.084 52.0871C479.48 45.5703 479.077 38.9929 478.07 32.6272C477.808 30.9854 475.703 29.414 474.131 28.2456C468.984 24.408 468.823 20.8323 474.192 17.4782C476.965 15.7951 479.94 14.4685 483.046 13.5298C492.655 10.5282 502.301 7.67099 511.984 4.95815C521.044 2.46493 530.453 1.47811 539.834 2.03714C546.341 2.36954 552.193 4.33366 556.957 9.02742C561.329 13.278 562.205 18.2437 560.472 23.844C558.74 29.4443 555.93 34.2085 550.974 37.3612C541.909 43.1529 532.703 48.733 523.557 54.3837C522.55 54.988 521.542 55.5319 520.596 56.096C520.636 56.5593 520.636 57.0529 520.626 57.5464ZM494.105 45.0163C510.302 40.8362 534.687 28.2859 538.525 21.8496C521.653 19.5733 506.111 24.5088 489.562 27.0672C491.164 33.4128 492.574 38.9829 494.105 45.0163Z" fill="#E44435"/>
<path d="M595.99 20.3286C601.741 17.9314 603.232 13.2779 604.954 8.62445C605.62 6.62916 606.581 4.74485 607.805 3.03424C610.504 -0.430677 613.425 -0.73285 616.568 2.57091C619.59 5.70344 622.611 6.35815 626.64 5.44156C634.638 3.62852 642.666 1.9162 650.744 0.526207C653.866 -0.00763238 657.412 -0.350098 660.333 0.58664C665.601 2.27881 666.668 6.4488 663.687 11.0721C662.549 12.8247 661.169 14.4161 659.658 16.4507C654.823 13.8722 650.875 16.4507 646.564 18.0926C638.949 21.0438 631.133 23.572 623.276 25.8383C616.387 27.8527 616.306 27.5808 615.611 34.4099C615.52 35.3164 615.611 36.2431 615.611 37.7741C617.194 37.8757 618.782 37.8757 620.365 37.7741C631.737 36.233 643.069 34.3797 654.481 33.2113C657.452 32.899 660.887 34.2185 663.626 35.6488C664.926 36.3438 665.762 39.2447 665.55 40.9973C665.399 42.3369 663.375 43.5758 661.995 44.6133C661.167 45.0681 660.228 45.281 659.285 45.2277C646.191 45.5903 634.104 50.6568 621.624 53.5274C621.171 53.6382 620.728 53.9807 620.295 53.9605C609.96 53.3965 608.782 61.1321 606.445 69.3915C609.467 68.9383 611.673 68.5555 613.879 68.2735C625.714 66.7928 637.559 65.2517 649.414 63.9323C651.522 63.845 653.634 63.9631 655.72 64.2848C662.68 64.8489 668.814 66.5612 670.063 75.9084C668.048 76.2912 665.711 76.8552 663.354 77.1372C656.636 77.9229 649.827 78.1445 643.21 79.4237C632.382 81.4382 621.665 84.0066 610.917 86.4039C605.136 87.7032 599.838 89.5767 596.181 94.9554C593.583 98.7628 587.056 98.0779 583.369 94.0489C580.428 90.8358 578.605 87.2802 580.217 82.5764C583.389 73.2694 586.26 63.8517 589.282 54.5145C591.83 46.7184 594.398 38.9324 597.168 31.217C597.9 29.4486 598.175 27.5248 597.969 25.6223C597.763 23.7198 597.083 21.8995 595.99 20.3286Z" fill="#E44435"/>
<path d="M694.699 20.3286C700.46 17.9314 701.941 13.2779 703.663 8.62445C704.329 6.62916 705.29 4.74485 706.514 3.03424C709.213 -0.430677 712.134 -0.73285 715.277 2.57091C718.298 5.70344 721.37 6.35815 725.399 5.44156C733.397 3.62852 741.425 1.9162 749.503 0.526207C752.625 -0.00763238 756.171 -0.350098 759.092 0.58664C764.36 2.27881 765.427 6.4488 762.446 11.0721C761.308 12.8247 759.928 14.4161 758.417 16.4507C753.582 13.8722 749.634 16.4507 745.323 18.0926C737.708 21.0438 729.892 23.572 722.035 25.8383C715.146 27.8527 715.065 27.5808 714.37 34.4099C714.28 35.3164 714.37 36.2431 714.37 37.7741C715.953 37.8757 717.541 37.8757 719.124 37.7741C730.496 36.233 741.838 34.3797 753.24 33.2113C756.261 32.899 759.646 34.2185 762.386 35.6488C763.685 36.3438 764.521 39.2447 764.319 40.9973C764.158 42.3369 762.144 43.5758 760.754 44.6133C759.926 45.0681 758.987 45.281 758.044 45.2277C744.95 45.5903 732.914 50.6568 720.383 53.5274C719.93 53.6382 719.487 53.9807 719.054 53.9605C708.72 53.3965 707.541 61.1321 705.214 69.3915C708.236 68.9383 710.432 68.5555 712.638 68.2735C724.483 66.7928 736.318 65.2517 748.173 63.9323C750.282 63.845 752.393 63.9631 754.479 64.2848C761.439 64.8489 767.573 66.5612 768.822 75.9084C766.807 76.2912 764.471 76.8552 762.124 77.1372C755.405 77.9229 748.596 78.1445 741.979 79.4237C731.161 81.4382 720.434 84.0066 709.686 86.4039C703.905 87.7032 698.607 89.5767 694.95 94.9554C692.352 98.7628 685.825 98.0779 682.138 94.0489C679.197 90.8358 677.384 87.2802 678.986 82.5764C682.158 73.2694 685.029 63.8517 688.051 54.5145C690.599 46.7184 693.178 38.9324 695.938 31.217C696.66 29.4437 696.926 27.5171 696.709 25.6145C696.493 23.7119 695.801 21.8942 694.699 20.3286Z" fill="#E44435"/>
<path d="M227.457 285.311V299.11C231.304 298.536 234.679 297.67 238.083 297.599C244.359 297.413 250.64 297.574 256.898 298.083C259.87 298.345 262.882 299.936 263.123 303.673C263.325 306.826 261.109 309.132 257.08 310.371C256.193 310.643 255.267 310.845 254.36 311.076C249.384 312.356 244.429 313.786 239.403 314.874C234.376 315.961 229.33 316.697 223.74 317.674C221.111 327.313 218.371 336.942 215.883 346.642C215.007 350.057 213.416 352.595 210.213 354.116C206.415 355.919 204.32 355.335 201.802 352.051C198.891 348.264 199.183 344.043 200.291 339.964C202.074 333.427 204.421 327.041 206.385 320.554C209.095 311.61 211.844 302.676 214.232 293.651C215.38 289.259 216.8 284.817 213.577 280.214C212.57 278.824 214.151 275.44 214.977 273.164C215.591 271.461 217.082 270.142 217.898 268.44C219.207 265.811 221.403 265.055 223.7 266.244C226.409 267.644 228.555 266.496 231.043 265.922C245.376 262.618 259.719 259.264 274.153 256.433C278.383 255.607 283.057 255.476 287.015 258.448C289.523 260.311 291.981 262.104 291.336 265.791C290.692 269.477 289.745 272.841 285.847 274.1C282.757 275.163 279.592 275.995 276.379 276.588C261.622 279.076 246.846 281.393 232.06 283.84C230.492 284.22 228.954 284.711 227.457 285.311Z" fill="#E44435"/>
<path d="M366.967 301.437C366.786 316.686 361.78 330.647 351.758 341.777C341.544 353.159 325.811 356.785 309.121 345.917C305.807 343.751 302.382 341.465 299.794 338.544C291.162 328.763 288.775 317.744 294.022 305.305C299.21 293.056 306.22 282.138 316.182 273.234C317.921 271.79 319.271 269.934 320.11 267.835C322.668 259.958 330.051 254.691 338.24 255.748C349.733 257.269 357.529 263.806 361.659 274.473C364.943 283.095 366.738 292.213 366.967 301.437ZM345.754 277.041C333.667 274.161 327.261 281.795 321.58 289.269C317.693 294.356 315.356 300.701 312.797 306.684C309.725 313.876 312.415 320.323 317.552 325.177C321.732 329.136 327.03 332.158 333.476 329.71C338.591 327.865 342.861 324.224 345.492 319.466C353.349 305.415 352.583 291.324 345.754 277.041Z" fill="#E44435"/>
<path d="M435.152 312.849C439.181 313.634 443.361 314.249 447.39 315.246C456.455 317.502 465.521 319.698 474.475 322.397C477.305 323.238 479.93 324.657 482.184 326.564C484.438 328.471 486.272 330.825 487.569 333.477C489.584 337.335 489.151 339.057 485.907 341.958C485.273 342.532 484.004 343.227 484.084 343.67C485.313 350.127 481.657 348.364 477.91 347.81C461.713 345.413 445.476 343.257 429.24 341.162C426.298 340.79 423.257 341.162 419.862 341.162C419.812 343.346 419.613 345.523 419.268 347.679C418.89 349.414 418.047 351.014 416.83 352.307C415.613 353.601 414.067 354.539 412.358 355.022C408.803 356.08 406.113 353.753 404.079 350.993C402.855 349.569 401.915 347.925 401.309 346.148C400.181 341.585 397.119 339.188 393.15 337.264C390.871 336.068 388.753 334.589 386.845 332.863C382 328.763 381.214 324.805 383.531 318.6C384.337 316.424 384.8 314.128 385.545 311.388C386.633 310.895 388.084 310.22 389.574 309.585C391.065 308.951 392.546 308.316 394.611 307.46C394.016 300.943 393.654 294.416 392.646 288C392.395 286.358 390.289 284.787 388.708 283.608C383.571 279.781 383.41 276.205 388.779 272.851C391.55 271.164 394.525 269.837 397.632 268.903C407.235 265.901 416.881 263.044 426.57 260.331C435.631 257.837 445.04 256.85 454.421 257.41C460.917 257.742 466.77 259.696 471.544 264.39C475.905 268.651 476.792 273.616 475.049 279.207C473.307 284.797 470.506 289.581 465.561 292.734C456.496 298.526 447.289 304.106 438.134 309.756C437.126 310.361 436.169 310.895 435.172 311.469L435.152 312.849ZM408.601 300.319C424.808 296.128 449.193 283.588 453.021 277.152C436.149 274.876 420.618 279.801 404.058 282.369C405.69 288.715 407.1 294.285 408.601 300.319Z" fill="#E44435"/>
<path d="M560.048 351.044C558.034 350.5 560.411 346.692 556.664 346.914C554.498 347.045 554.267 344.527 554.881 342.492C556.05 338.685 557.299 334.908 558.255 331.05C561.589 317.643 564.379 304.096 568.187 290.831C571.873 278.028 576.547 265.498 580.838 252.867C581.344 251.546 582.022 250.297 582.852 249.151C584.585 246.582 587.304 245.021 590.074 246.129C591.807 246.804 593.398 249.241 593.992 251.165C598.596 266.385 602.947 281.685 607.5 297.408C609.327 297.595 611.162 297.686 612.999 297.68C618.579 297.388 624.149 296.783 629.729 296.612C635.31 296.441 640.084 299.11 644.375 302.444C647.004 304.459 647.245 307.279 645.281 309.898C642.844 313.151 639.893 315.397 635.36 315.448C628.41 315.528 621.46 316.183 614.208 316.616C613.989 318.43 613.912 320.259 613.976 322.085C615.729 335.502 615.235 349.281 620.594 362.083C622.83 367.411 620.1 371.581 617.854 375.681C615.699 379.619 608.094 379.055 606.281 374.533C603.391 367.673 601.27 360.515 599.955 353.189C598.495 344.003 598.455 334.585 597.8 325.258C597.649 323.244 597.457 321.149 597.256 318.832C590.205 317.22 583.557 318.661 576.104 319.688C575.097 324.352 573.958 329.086 572.891 333.79C572.176 336.972 571.712 340.236 570.755 343.348C568.499 350.792 568.408 350.762 560.048 351.044ZM586.307 270.796C583.225 281.352 578.995 291.405 579.196 303.27L591.847 300.329C591.944 299.095 591.944 297.856 591.847 296.622C590.014 288.02 588.15 279.408 586.307 270.807V270.796Z" fill="#E44435"/>
</svg>
