<?xml version="1.0" standalone="no"?>
<!DOCTYPE svg PUBLIC "-//W3C//DTD SVG 20010904//EN"
 "http://www.w3.org/TR/2001/REC-SVG-20010904/DTD/svg10.dtd">
<svg version="1.0" xmlns="http://www.w3.org/2000/svg"
 width="1000.000000pt" height="1000.000000pt" viewBox="0 0 1000.000000 1000.000000"
 preserveAspectRatio="xMidYMid meet">
<metadata>
Created by potrace 1.11, written by Peter Selinger 2001-2013
</metadata>
<g transform="translate(0.000000,1000.000000) scale(0.100000,-0.100000)"
fill="#000000" stroke="none">
<path d="M3006 9577 c-117 -215 -211 -407 -361 -742 -8 -16 -30 -70 -50 -120
-19 -49 -40 -99 -45 -110 -13 -30 -67 -176 -116 -314 l-44 -124 41 -46 c423
-470 825 -843 1279 -1187 136 -103 351 -257 424 -304 214 -137 286 -185 284
-191 -3 -6 -70 -77 -343 -364 -27 -29 -115 -122 -195 -206 -80 -84 -158 -166
-173 -182 -16 -16 -27 -30 -25 -31 2 -2 28 -8 58 -14 121 -25 193 -42 197 -46
3 -2 -4 -13 -15 -23 -350 -333 -730 -611 -1157 -845 -134 -73 -325 -168 -325
-161 0 3 -6 1 -13 -5 -6 -5 -73 -36 -147 -67 -74 -31 -144 -60 -155 -65 -33
-15 -296 -105 -363 -125 -34 -10 -59 -21 -55 -25 32 -29 492 -258 703 -350
193 -85 490 -202 643 -255 117 -39 106 -40 167 12 72 62 230 202 269 237 24
23 56 52 71 66 14 14 66 63 114 110 l87 85 -6 -50 c-3 -27 -8 -61 -10 -75 -3
-14 -7 -47 -11 -75 -3 -27 -7 -61 -10 -75 -2 -14 -6 -43 -9 -65 -3 -22 -8 -58
-11 -80 -3 -22 -7 -51 -9 -65 -2 -14 -6 -43 -9 -65 -3 -22 -8 -60 -11 -85 -4
-25 -12 -88 -20 -140 -7 -52 -17 -119 -20 -149 -4 -30 -8 -62 -10 -71 -2 -9
-6 -41 -10 -71 -3 -30 -8 -66 -11 -81 -3 -15 -7 -40 -9 -57 -10 -76 -26 -199
-31 -231 -3 -19 -14 -100 -25 -180 -27 -197 -26 -187 -38 -271 -6 -41 -13 -92
-16 -114 -2 -22 -11 -87 -19 -145 -9 -58 -18 -127 -22 -155 -3 -27 -8 -57 -9
-65 -2 -9 -6 -43 -10 -75 -4 -33 -9 -67 -10 -75 -5 -29 -15 -95 -20 -140 -4
-25 -8 -56 -10 -70 -2 -14 -8 -59 -14 -100 -10 -68 -15 -109 -26 -195 -7 -54
-26 -189 -30 -215 -3 -14 -7 -47 -10 -75 -3 -27 -8 -57 -10 -65 -2 -8 -7 -40
-10 -70 -3 -30 -10 -82 -16 -115 -5 -33 -9 -65 -9 -71 0 -10 71 -30 170 -48
14 -2 102 -20 195 -40 94 -19 181 -37 195 -40 14 -2 82 -16 151 -30 l127 -26
1005 0 c851 0 1017 2 1076 15 39 8 83 17 98 20 33 6 4 0 347 70 316 64 326 67
322 92 -7 34 -26 168 -31 218 -3 28 -8 57 -10 65 -2 8 -7 39 -10 69 -4 30 -8
62 -10 71 -2 9 -6 41 -10 71 -3 30 -12 95 -20 144 -7 50 -16 115 -20 145 -3
30 -10 80 -15 110 -5 30 -12 78 -15 105 -3 28 -8 61 -10 75 -2 14 -6 45 -10
70 -4 25 -8 56 -10 70 -2 14 -7 48 -10 75 -5 43 -19 146 -41 295 -11 78 -23
168 -29 215 -7 56 -13 98 -20 135 -2 14 -7 48 -10 75 -7 55 -42 307 -51 370
-4 22 -8 51 -9 65 -2 27 -15 123 -21 154 -2 10 -6 44 -9 75 -4 31 -8 63 -10
71 -6 20 -12 63 -21 140 -4 36 -8 67 -9 70 -1 3 -5 32 -9 65 -4 32 -9 66 -11
75 -2 8 -6 44 -10 80 -4 36 -8 67 -10 70 -1 3 -6 30 -9 61 -4 31 -8 65 -10 75
-2 11 -7 46 -11 79 -3 33 -10 79 -14 102 -5 24 -7 43 -5 43 5 0 43 -62 78
-125 16 -27 32 -54 36 -60 13 -16 173 -333 204 -405 16 -36 39 -87 51 -115 42
-94 133 -340 181 -489 47 -148 47 -148 65 -125 10 13 79 146 153 294 130 259
274 584 349 785 19 52 38 104 43 115 4 11 8 22 9 25 1 3 5 12 8 20 3 8 20 55
37 104 29 86 29 90 13 110 -101 118 -193 216 -393 416 -201 201 -228 226 -390
369 -52 46 -109 96 -125 111 -55 48 -289 235 -370 295 -44 33 -82 62 -85 66
-3 3 -15 12 -28 21 -23 16 -23 16 30 27 29 6 88 19 131 28 43 9 76 20 75 24
-3 7 -142 156 -309 331 -88 91 -300 315 -371 391 -49 52 -55 64 -44 77 7 8 26
30 42 49 107 126 367 390 503 511 443 391 992 733 1536 956 117 48 395 150
430 158 38 8 105 31 105 36 0 15 -481 255 -735 367 -141 63 -448 183 -592 233
l-123 43 -32 -25 c-56 -43 -205 -184 -403 -383 -185 -185 -252 -256 -365 -385
-30 -35 -60 -68 -65 -74 -152 -165 -455 -565 -652 -859 l-112 -167 -103 105
c-57 59 -104 110 -106 116 -8 22 -33 3 -138 -108 l-112 -117 -53 44 c-594 487
-1073 1080 -1414 1755 -136 270 -217 464 -312 744 -30 91 -56 167 -57 168 -1
1 -14 -22 -30 -50z"/>
</g>
</svg>
